<svg width="48" height="48" xmlns="http://www.w3.org/2000/svg">
 <metadata id="metadata4042">image/svg+xml</metadata>

 <g>
  <title>background</title>
  <rect fill="none" id="canvas_background" height="50" width="50" y="-1" x="-1"/>
 </g>
 <g>
  <title>Layer 1</title>
  <g transform="rotate(-0.56321, 22.7072, 24.0965) matrix(0.499187, 0, 0, 0.504395, 56.1337, -13.6449)" id="g4035">
   <g id="g4033">
    <g id="g4031">
     <g id="g3957">
      <g id="g3955">
       <g id="g3953">
        <g id="g3943">
         <polygon fill="#d0d1d1" id="polygon3941" points="-110.14291366934776,44.000064849853516 -66.89190658926964,28.959064483642578 -23.430917590856552,44.15304946899414 -66.67791733145714,59.19406509399414 "/>
        </g>
        <g id="g3947">
         <polygon fill="#d0d1d1" id="polygon3945" points="-67.02691635489464,120.6910400390625 -66.67791733145714,59.19406509399414 -23.430917590856552,44.15304946899414 -23.774926990270615,105.65206909179688 "/>
        </g>
        <g id="g3951">
         <polygon fill="#d0d1d1" id="polygon3949" points="-110.49291977286339,105.49703979492188 -110.14291366934776,44.000064849853516 -66.67791733145714,59.19406509399414 -67.02691635489464,120.6910400390625 "/>
        </g>
       </g>
      </g>
     </g>
     <g id="g3975">
      <g id="g3973">
       <g id="g3971">
        <g id="g3961">
         <polygon fill="#ffe045" stroke="#ffffff" stroke-width="1.6306" id="polygon3959" points="-104.74691757559776,74.15203857421875 -66.73590072989464,60.93106460571289 -28.540918201208115,74.2890625 -66.54690536856651,87.50204467773438 " stroke-miterlimit="10"/>
        </g>
        <g id="g3965">
         <polygon fill="#ffe045" stroke="#ffffff" stroke-width="1.6306" id="polygon3963" points="-66.80392441153526,114.362060546875 -66.54690536856651,87.50204467773438 -28.540918201208115,74.2890625 -28.793924182653427,101.14804077148438 " stroke-miterlimit="10"/>
        </g>
        <g id="g3969">
         <polygon fill="#ffe045" stroke="#ffffff" stroke-width="1.6306" id="polygon3967" points="-105.00091537833214,101.53005981445312 -104.74691757559776,74.15203857421875 -66.54690536856651,87.50204467773438 -66.80590805411339,114.88006591796875 " stroke-miterlimit="10"/>
        </g>
       </g>
      </g>
     </g>
     <g id="g3993">
      <g id="g3991">
       <g id="g3989">
        <g id="g3979">
         <polygon fill="#c4e885" stroke="#ffffff" stroke-width="1.6306" id="polygon3977" points="-86.18292221426964,39.99203872680664 -66.88992294669151,33.2830696105957 -47.50292190909386,40.063053131103516 -66.79592880606651,46.772037506103516 " stroke-miterlimit="10"/>
        </g>
        <g id="g3983">
         <polygon fill="#bedb94" stroke="#ffffff" stroke-width="1.6306" id="polygon3981" points="-66.95190414786339,74.20306396484375 -66.79592880606651,46.772037506103516 -47.50292190909386,40.063053131103516 -47.655921787023544,67.49404907226562 " stroke-miterlimit="10"/>
        </g>
        <g id="g3987">
         <polygon fill="#bedb94" stroke="#ffffff" stroke-width="1.6306" id="polygon3985" points="-86.33892807364464,67.425048828125 -86.18292221426964,39.99203872680664 -66.79592880606651,46.772037506103516 -66.95190414786339,74.20306396484375 " stroke-miterlimit="10"/>
        </g>
       </g>
      </g>
     </g>
     <g id="g4011">
      <g id="g4009">
       <g id="g4007">
        <g id="g3997">
         <polygon fill="#c4e885" stroke="#ffffff" stroke-width="1.6306" id="polygon3995" points="-104.92492660880089,46.49905776977539 -85.63290390372276,39.790042877197266 -66.24392685294151,46.568058013916016 -85.53790268301964,53.279056549072266 " stroke-miterlimit="10"/>
        </g>
        <g id="g4001">
         <polygon fill="#c4e885" stroke="#ffffff" stroke-width="1.6306" id="polygon3999" points="-85.69091781973839,80.70904541015625 -85.53790268301964,53.279056549072266 -66.24392685294151,46.568058013916016 -66.39990219473839,74.00006103515625 " stroke-miterlimit="10"/>
        </g>
        <g id="g4005">
         <polygon fill="#c4e885" stroke="#ffffff" stroke-width="1.6306" id="polygon4003" points="-105.08190903067589,73.92904663085938 -104.92492660880089,46.49905776977539 -85.53790268301964,53.279056549072266 -85.69091781973839,80.70904541015625 " stroke-miterlimit="10"/>
        </g>
       </g>
      </g>
     </g>
     <g id="g4029">
      <g id="g4027">
       <g id="g4025">
        <g id="g4015">
         <polygon fill="#c4e885" stroke="#ffffff" stroke-width="1.6306" id="polygon4013" points="-66.87292465567589,46.568058013916016 -47.577918857336044,39.85904312133789 -28.19091209769249,46.639041900634766 -47.48592361807823,53.350040435791016 " stroke-miterlimit="10"/>
        </g>
        <g id="g4019">
         <polygon fill="#c4e885" stroke="#ffffff" stroke-width="1.6306" id="polygon4017" points="-47.63991531729698,80.77804565429688 -47.48592361807823,53.350040435791016 -28.19091209769249,46.639041900634766 -28.345926135778427,74.07003784179688 " stroke-miterlimit="10"/>
        </g>
        <g id="g4023">
         <polygon fill="#c4e885" stroke="#ffffff" stroke-width="1.6306" id="polygon4021" points="-67.02490219473839,74.00006103515625 -66.87292465567589,46.568058013916016 -47.48592361807823,53.350040435791016 -47.63991531729698,80.77804565429688 " stroke-miterlimit="10"/>
        </g>
       </g>
      </g>
     </g>
    </g>
   </g>
  </g>
 </g>
</svg>