<svg width="48" height="48" xmlns="http://www.w3.org/2000/svg">

 <g>
  <title>background</title>
  <rect fill="none" id="canvas_background" height="50" width="50" y="-1" x="-1"/>
 </g>
 <g>
  <title>Layer 1</title>
  <g id="svg_1" fill-rule="evenodd">
   <path id="svg_2" fill="#364548" d="m7.641364,38.876751l0,-3.594677c0,-0.472401 0.242436,-0.852516 0.643804,-0.852516l0.111298,0c0.401363,0 0.642719,0.380116 0.642719,0.852516l0,7.569462c0,1.84568 -0.748785,3.313419 -2.053171,4.249458c-0.604843,0.432846 -1.273175,0.656963 -1.974346,0.656963l-0.277254,0c-1.515621,0 -2.719889,-0.914051 -3.489064,-2.500443c-0.357006,-0.738281 -0.53833,-1.551258 -0.53833,-2.405979l-0.000004,-0.338375c0,-1.845661 0.749092,-3.313427 2.05245,-4.249439c0.605382,-0.437252 1.272822,-0.656979 1.974888,-0.656979l0.277254,0c1.025689,0 1.89588,0.483391 2.629697,1.270008l0.00006,0zm-5.536649,3.805599c0,1.333714 0.530576,2.335663 1.4897,2.975056c0.387836,0.25927 0.808859,0.397694 1.251352,0.397694c1.074388,0 1.871343,-0.617416 2.420982,-1.727028c0.255607,-0.51635 0.374667,-1.081036 0.374667,-1.680874c0,-1.15575 -0.449163,-2.056614 -1.213828,-2.726768c-0.4636,-0.406483 -0.985462,-0.610832 -1.554588,-0.610832c-1.171077,0 -2.013845,0.720699 -2.519655,2.001682c-0.170664,0.432858 -0.248631,0.892067 -0.248631,1.371071l0,0zm11.783656,-5.075607l0.193738,0c1.61952,0 2.851206,0.958 3.631742,2.678425c0.312077,0.689922 0.479113,1.441383 0.479113,2.227985l0,0.338383c0,1.84568 -0.747164,3.315613 -2.053715,4.249458c-0.604838,0.432846 -1.272997,0.656963 -1.973983,0.656963l-0.276896,0c-1.515618,0 -2.720068,-0.914051 -3.489058,-2.500443c-0.35699,-0.738281 -0.538822,-1.551258 -0.538822,-2.405979l0,-0.338375c0,-1.845661 0.752038,-3.309029 2.052277,-4.249439c0.604476,-0.437252 1.27317,-0.656979 1.975603,-0.656979zm-2.630237,5.075607c0,1.29417 0.521508,2.245571 1.418932,2.915733c0.421386,0.314194 0.885522,0.457016 1.377802,0.457016c1.049854,0 1.825889,-0.648178 2.365969,-1.729221c0.257593,-0.514156 0.374123,-1.078842 0.374123,-1.67868c0,-1.201893 -0.475864,-2.122528 -1.289413,-2.788284c-0.445742,-0.364738 -0.941983,-0.549316 -1.478822,-0.549316c-1.171071,0 -2.013847,0.720699 -2.519476,2.001682c-0.171002,0.432858 -0.249114,0.892067 -0.249114,1.371071zm12.744938,-3.236515c-0.211052,-0.11866 -0.606104,-0.160397 -0.833393,-0.171391c-1.167101,-0.052738 -2.013126,0.749249 -2.509186,2.003868c-0.169573,0.432858 -0.248941,0.889881 -0.248941,1.368885c0,1.458958 0.629557,2.480682 1.697451,3.102486c0.391441,0.226315 0.89472,0.270264 1.320442,0.270264c0.3752,0 0.905546,-0.279053 1.23926,-0.472397l0.057722,-0.032967l0.257957,0l0.02886,0.006592c0.317486,0.081299 0.557398,0.325188 0.557398,0.742672l0,0.169167c0,1.034912 -1.554937,1.272198 -2.148415,1.32275c-2.094305,0.177967 -3.660069,-1.223858 -4.257153,-3.6562c-0.104631,-0.424068 -0.15152,-0.843739 -0.15152,-1.283188l0,-0.336163c0,-1.847874 0.752211,-3.309032 2.052813,-4.249451c0.604294,-0.437252 1.273537,-0.656971 1.975241,-0.656971l0.277798,0c0.745001,0 1.430473,0.257076 2.045593,0.769024l0.050512,0.041752l0.032473,0.063721c0.066738,0.136223 0.122658,0.290035 0.122658,0.450432l0,0.166988c0,0.435051 -0.266968,0.670155 -0.588064,0.744865l-0.027056,0.006596l-0.082975,0c-0.209255,0 -0.681873,-0.26368 -0.869474,-0.371334zm4.534952,1.153538c0.542973,-0.661358 1.087744,-1.322723 1.637922,-1.975304c0.15333,-0.18018 0.735977,-0.949211 0.965069,-0.949211l0.248945,0l0.028856,0.006599c0.319283,0.081295 0.557402,0.327381 0.557402,0.744854l0,0.166992c0,0.285641 -0.272392,0.615227 -0.423908,0.810787c-0.321096,0.415272 -0.660225,0.81517 -0.988525,1.221653l-1.688431,2.087368c0.726957,0.88768 1.453922,1.777554 2.175478,2.671833c0.198421,0.248291 0.398647,0.494385 0.59528,0.744869c0.068546,0.090084 0.17136,0.19994 0.229082,0.325176c0.063148,0.114262 0.101025,0.2439 0.101025,0.384525l0,0.175774l-0.007221,0.039551c-0.079374,0.388905 -0.281399,0.703117 -0.63497,0.703117l-0.110027,0c-0.232704,0 -0.492466,-0.3186 -0.651205,-0.500973c-0.326496,-0.375732 -0.642183,-0.769028 -0.961464,-1.153538l-1.073307,-1.283188l0,2.052204c0,0.47242 -0.243521,0.852528 -0.64399,0.852528l-0.110027,0c-0.402267,0 -0.64399,-0.380108 -0.64399,-0.852528l0,-11.557426c0,-0.472408 0.241722,-0.85033 0.64399,-0.85033l0.110027,0c0.400469,0 0.64399,0.377922 0.64399,0.85033l0,5.284336zm17.421844,-2.924515l0.137096,0c0.420303,0 0.699905,0.342773 0.699905,0.850334c0,0.705315 -0.553783,0.885494 -1.031818,0.885494c-0.627747,0 -1.226639,0.4636 -1.659569,0.982162c-0.53936,0.648178 -0.775658,1.478718 -0.775658,2.390575l0,4.122009c0,0.472397 -0.241722,0.852524 -0.643997,0.852524l-0.110027,0c-0.402267,0 -0.64399,-0.380127 -0.64399,-0.852524l0,-4.359314c0,-1.672096 0.669235,-3.038765 1.784039,-3.996761c0.66563,-0.573475 1.428669,-0.8745 2.244019,-0.8745zm-9.935749,8.167114c0.508694,0.217525 1.089542,0.186752 1.610851,0.074703c0.266979,-0.138424 0.948845,-0.500965 1.199577,-0.446041l0.039692,0.006592l0.036072,0.021976c0.153336,0.090084 0.299454,0.217514 0.378819,0.408684c0.182194,0.446037 0.0938,0.892078 -0.265163,1.146954l-0.119072,0.083488c-1.32584,0.931629 -2.736465,0.801994 -4.058708,-0.0681c-0.631359,-0.415279 -1.114803,-1.032703 -1.471962,-1.786358l-0.082985,-0.17577c-0.851421,-1.795151 -0.735977,-3.684772 0.223682,-5.392021c0.331913,-0.591049 0.764843,-1.045872 1.271736,-1.401825l0.191216,-0.136234c1.24828,-0.876686 2.586754,-0.817368 3.869305,-0.046135c0.689091,0.413074 1.248287,1.030502 1.632515,1.843475l0.070347,0.147213c0.279606,0.588856 -0.082977,1.103012 -0.456379,1.454571c-0.434734,0.408676 -0.873081,0.898663 -1.289776,1.335907c-0.927193,0.975578 -1.852581,1.953342 -2.779766,2.928921zm-1.199577,-1.026112c1.03722,-1.083241 2.074455,-2.168674 3.108078,-3.256302c0.353546,-0.371323 0.741386,-0.755848 1.093143,-1.146961c-0.281399,-0.430641 -0.75222,-0.742653 -1.150867,-0.929413c-0.806343,-0.373531 -1.601845,-0.248291 -2.341434,0.272457c-0.968681,0.681137 -1.379974,1.764374 -1.343887,3.113468c0.014427,0.531731 0.131687,1.043682 0.362576,1.494114c0.082985,0.160408 0.173176,0.309814 0.272392,0.452637z"/>
   <path id="svg_3" fill="#364548" d="m27.280722,10.69772l4.123667,0l0,5.136024l2.087086,0c0.961468,0 1.953594,-0.208958 2.864559,-0.58534c0.449165,-0.185229 0.952446,-0.442746 1.394394,-0.766615c-0.582653,-0.926133 -0.880283,-2.095279 -0.966873,-3.247941c-0.119053,-1.567512 0.140709,-3.607853 1.010166,-4.834787l0.434734,-0.610832l0.515911,0.506022c1.300594,1.272858 2.395546,3.051733 2.588566,5.079559c1.565762,-0.561175 3.403912,-0.428463 4.785683,0.542055l0.566422,0.398136l-0.297638,0.708822c-1.168922,2.775548 -3.609566,3.63554 -5.996094,3.483269c-3.571678,10.835201 -11.346386,15.963539 -20.773455,15.963539c-4.869568,0 -9.337958,-2.217012 -11.882502,-7.481575l-0.041673,-0.085686l-0.370693,-0.918446c-0.860095,-2.316542 -1.145829,-4.854559 -0.952091,-7.3906l0.058266,-0.759582l3.527124,0l0,-5.136024l4.124567,0l0,-5.024185l8.250033,0l0,-5.024185l4.949841,0l0,10.04837"/>
   <path id="svg_4" fill="#22A0C8" d="m40.643848,12.597883c0.27599,-2.618216 -1.331261,-4.674604 -2.328808,-5.651055c-1.150871,1.618917 -1.329445,5.861771 0.474419,7.648117c-1.006565,1.088946 -3.127922,2.075944 -5.297985,2.075944l-26.435829,0c-0.21106,2.761257 0.186878,5.30411 1.095852,7.480028l0.300707,0.670153c0.190311,0.393305 0.398478,0.773424 0.62324,1.140362c1.086833,0.083496 2.088888,0.114254 3.005621,0.087891l0.000359,0c1.801535,-0.04834 3.271514,-0.307611 4.385592,-0.777821c0.165775,-0.068113 0.346704,0.037352 0.404068,0.239496c0.057182,0.202145 -0.030489,0.421869 -0.196264,0.49218c-0.148098,0.063719 -0.302513,0.120848 -0.461971,0.175779c-0.000183,0.002195 -0.000364,0.002195 -0.000542,0.002195c-0.877223,0.303221 -1.817948,0.509758 -3.031595,0.599848c0.071973,0.002195 -0.075045,0.013182 -0.075403,0.013182c-0.041311,0.004395 -0.093262,0.010988 -0.13475,0.013187c-0.47767,0.032953 -0.993217,0.039547 -1.520306,0.039547c-0.576522,0 -1.1442,-0.013187 -1.778988,-0.052734l-0.016234,0.013187c2.202716,3.016792 5.646497,4.825113 9.962819,4.825113c9.136642,0 16.886106,-4.932783 20.318872,-16.008795c2.433437,0.304318 4.773064,-0.451971 5.837349,-2.982741c-1.695644,-1.191557 -3.874718,-0.811658 -5.130222,-0.043063"/>
   <path id="svg_5" fill="#37B1D9" d="m40.643848,12.597883c0.27599,-2.618216 -1.331261,-4.674604 -2.328808,-5.651055c-1.150871,1.618917 -1.329445,5.861771 0.474419,7.648117c-1.006565,1.088946 -3.127922,2.075944 -5.297985,2.075944l-24.870065,0c-0.108234,4.228785 1.180099,7.438276 3.459657,9.378433l0.000363,0c1.801534,-0.04834 3.271513,-0.307611 4.385587,-0.777821c0.165775,-0.068113 0.346704,0.037352 0.404068,0.239496c0.057186,0.202145 -0.030481,0.421869 -0.196264,0.49218c-0.148094,0.063719 -0.302509,0.120848 -0.461971,0.175779c-0.000177,0.002195 -0.00036,0.002195 -0.000542,0.002195c-0.877223,0.303221 -1.898761,0.536123 -3.112408,0.626217c-0.000362,0 -0.029405,-0.032967 -0.029763,-0.032967c3.109345,1.94235 7.617417,1.935766 12.787333,-0.483387c5.795849,-2.71138 11.189444,-7.879044 14.952333,-13.788929c-0.057724,0.031199 -0.111843,0.063059 -0.165955,0.095797"/>
   <path id="svg_6" fill="#1B81A5" d="m7.105247,20.025833c0.164332,1.479176 0.519339,2.863874 1.046251,4.125084l0.300707,0.670153c0.190311,0.393305 0.398478,0.773424 0.62324,1.140362c1.087014,0.083496 2.089069,0.114254 3.00598,0.087891c1.801535,-0.04834 3.271514,-0.307611 4.385592,-0.777821c0.165775,-0.068113 0.346704,0.037352 0.404068,0.239496c0.057182,0.202145 -0.030489,0.421869 -0.196264,0.49218c-0.148098,0.063719 -0.302513,0.120848 -0.461971,0.175779c-0.000183,0.002195 -0.000364,0.002195 -0.000542,0.002195c-0.877223,0.303221 -1.893348,0.522945 -3.106998,0.613029c-0.04167,0.004395 -0.114365,0.004395 -0.156397,0.006594c-0.477307,0.032953 -0.987622,0.052734 -1.514897,0.052734c-0.57634,0 -1.165847,-0.013187 -1.800449,-0.052734c2.202535,3.016792 5.667962,4.831707 9.984284,4.831707c7.821613,0 14.627642,-3.616642 18.57633,-11.606649l-31.08803,0"/>
   <path id="svg_7" fill="#1D91B4" d="m8.858981,20.025833c0.467562,2.598009 1.591199,4.634838 3.222444,6.023489c1.801535,-0.04834 3.271514,-0.307611 4.385592,-0.777821c0.165775,-0.068113 0.346704,0.037352 0.404068,0.239496c0.057182,0.202145 -0.030489,0.421869 -0.196264,0.49218c-0.148098,0.063719 -0.302513,0.120848 -0.461971,0.175779c-0.000183,0.002195 -0.000364,0.002195 -0.000542,0.002195c-0.877223,0.303221 -1.914818,0.522945 -3.128646,0.613029c3.109164,1.94235 7.603889,1.915987 12.773808,-0.503166c3.126114,-1.463352 6.134975,-3.64081 8.83539,-6.265182l-25.833339,0"/>
   <path id="svg_8" fill="#23A3C2" d="m10.643737,11.535085l3.574742,0l0,4.354468l-3.574742,0l0,-4.354468zm0.297639,0.362979l0.282126,0l0,3.628726l-0.282126,0l0,-3.628726zm0.530519,0l0.293315,0l0,3.628726l-0.293315,0l0,-3.628726zm0.541345,0l0.293492,0l0,3.628726l-0.293492,0l0,-3.628726zm0.541885,0l0.29331,0l0,3.628726l-0.29331,0l0,-3.628726zm0.541703,0l0.293311,0l0,3.628726l-0.293311,0l0,-3.628726zm0.541526,0l0.282309,0l0,3.628726l-0.282309,0l0,-3.628726z"/>
   <path id="svg_9" fill="#23A3C2" d="m14.768304,6.5109l3.575109,0l0,4.354248l-3.575109,0l0,-4.354248zm0.298002,0.362984l0.28194,0l0,3.628505l-0.28194,0l0,-3.628505zm0.530515,0l0.293134,0l0,3.628505l-0.293134,0l0,-3.628505zm0.541349,0l0.293306,0l0,3.628505l-0.293306,0l0,-3.628505zm0.541698,0l0.293316,0l0,3.628505l-0.293316,0l0,-3.628505zm0.541708,0l0.293493,0l0,3.628505l-0.293493,0l0,-3.628505zm0.541523,0l0.282488,0l0,3.628505l-0.282488,0l0,-3.628505z"/>
   <path id="svg_10" fill="#34BBDE" d="m14.768304,11.535085l3.575109,0l0,4.354468l-3.575109,0l0,-4.354468zm0.298002,0.362979l0.28194,0l0,3.628726l-0.28194,0l0,-3.628726zm0.530515,0l0.293134,0l0,3.628726l-0.293134,0l0,-3.628726zm0.541349,0l0.293306,0l0,3.628726l-0.293306,0l0,-3.628726zm0.541698,0l0.293316,0l0,3.628726l-0.293316,0l0,-3.628726zm0.541708,0l0.293493,0l0,3.628726l-0.293493,0l0,-3.628726zm0.541523,0l0.282488,0l0,3.628726l-0.282488,0l0,-3.628726z"/>
   <path id="svg_11" fill="#23A3C2" d="m18.892689,11.535085l3.575283,0l0,4.354468l-3.575283,0l0,-4.354468zm0.29764,0.362979l0.283211,0l0,3.628726l-0.283211,0l0,-3.628726zm0.530342,0l0.294027,0l0,3.628726l-0.294027,0l0,-3.628726zm0.542969,0l0.292223,0l0,3.628726l-0.292223,0l0,-3.628726zm0.541155,0l0.294037,0l0,3.628726l-0.294037,0l0,-3.628726zm0.541172,0l0.294029,0l0,3.628726l-0.294029,0l0,-3.628726zm0.542961,0l0.281414,0l0,3.628726l-0.281414,0l0,-3.628726z"/>
   <path id="svg_12" fill="#34BBDE" d="m18.892689,6.5109l3.575283,0l0,4.354248l-3.575283,0l0,-4.354248zm0.29764,0.362984l0.283211,0l0,3.628505l-0.283211,0l0,-3.628505zm0.530342,0l0.294027,0l0,3.628505l-0.294027,0l0,-3.628505zm0.542969,0l0.292223,0l0,3.628505l-0.292223,0l0,-3.628505zm0.541155,0l0.294037,0l0,3.628505l-0.294037,0l0,-3.628505zm0.541172,0l0.294029,0l0,3.628505l-0.294029,0l0,-3.628505zm0.542961,0l0.281414,0l0,3.628505l-0.281414,0l0,-3.628505z"/>
   <path id="svg_13" fill="#34BBDE" d="m23.018156,11.535085l3.575287,0l0,4.354468l-3.575287,0l0,-4.354468zm0.297638,0.362979l0.281406,0l0,3.628726l-0.281406,0l0,-3.628726zm0.530346,0l0.294033,0l0,3.628726l-0.294033,0l0,-3.628726zm0.541164,0l0.294031,0l0,3.628726l-0.294031,0l0,-3.628726zm0.542965,0l0.292231,0l0,3.628726l-0.292231,0l0,-3.628726zm0.541168,0l0.294024,0l0,3.628726l-0.294024,0l0,-3.628726zm0.541159,0l0.283207,0l0,3.628726l-0.283207,0l0,-3.628726z"/>
   <path id="svg_14" fill="#23A3C2" d="m23.018156,6.5109l3.575287,0l0,4.354248l-3.575287,0l0,-4.354248zm0.297638,0.362984l0.281406,0l0,3.628505l-0.281406,0l0,-3.628505zm0.530346,0l0.294033,0l0,3.628505l-0.294033,0l0,-3.628505zm0.541164,0l0.294031,0l0,3.628505l-0.294031,0l0,-3.628505zm0.542965,0l0.292231,0l0,3.628505l-0.292231,0l0,-3.628505zm0.541168,0l0.294024,0l0,3.628505l-0.294024,0l0,-3.628505zm0.541159,0l0.283207,0l0,3.628505l-0.283207,0l0,-3.628505z"/>
   <path id="svg_15" fill="#34BBDE" d="m23.018156,1.486605l3.575287,0l0,4.354467l-3.575287,0.00022l0,-4.354467l0,-0.00022zm0.297638,0.362696l0.281406,0l0,3.62894l-0.281406,0l0,-3.62894zm0.530346,0l0.294033,0l0,3.62894l-0.294033,0l0,-3.62894zm0.541164,0l0.294031,0l0,3.62894l-0.294031,0l0,-3.62894zm0.542965,0l0.292231,0l0,3.62894l-0.292231,0l0,-3.62894zm0.541168,0l0.294024,0l0,3.62894l-0.294024,0l0,-3.62894zm0.541159,0l0.283207,0l0,3.62894l-0.283207,0l0,-3.62894z"/>
   <path id="svg_16" fill="#23A3C2" d="m27.141825,11.535085l3.575281,0l0,4.354468l-3.575281,0l0,-4.354468zm0.299444,0.362979l0.281404,0l0,3.628726l-0.281404,0l0,-3.628726zm0.530342,0l0.292223,0l0,3.628726l-0.292223,0l0,-3.628726zm0.541159,0l0.294029,0l0,3.628726l-0.294029,0l0,-3.628726zm0.541168,0l0.294027,0l0,3.628726l-0.294027,0l0,-3.628726zm0.542965,0l0.292223,0l0,3.628726l-0.292223,0l0,-3.628726zm0.541166,0l0.281406,0l0,3.628726l-0.281406,0l0,-3.628726z"/>
   <path id="svg_17" fill="#D3ECEC" d="m18.119545,22.949034c0.544594,0 0.986002,0.538319 0.986002,1.201883s-0.441408,1.201881 -0.986002,1.201881c-0.544771,0 -0.986357,-0.538322 -0.986357,-1.201881s0.441586,-1.201883 0.986357,-1.201883"/>
   <path id="svg_18" fill="#364548" d="m18.119545,23.289602c0.090195,0 0.176241,0.021975 0.255611,0.05932c-0.086048,0.059326 -0.14431,0.17358 -0.14431,0.303221c0,0.193357 0.12916,0.351557 0.288261,0.351557c0.109137,0 0.204018,-0.074703 0.25272,-0.182375c0.034279,0.101078 0.054119,0.213133 0.054119,0.329592c0,0.474602 -0.316404,0.859114 -0.706402,0.859114s-0.706394,-0.384512 -0.706394,-0.859114s0.316401,-0.861315 0.706394,-0.861315"/>
   <path id="svg_19" fill="#364548" d="m0.675325,20.460012l45.878023,0c-0.999355,-0.308491 -3.1604,-0.725527 -2.805031,-2.320059c-1.816505,2.559996 -6.19632,1.796017 -7.302094,0.533489c-1.230247,2.175035 -8.397045,1.348223 -8.896725,-0.346066c-1.544121,2.206242 -6.3262,2.206242 -7.870321,0c-0.49967,1.694288 -7.666301,2.521101 -8.897444,0.346066c-1.105416,1.262527 -5.485594,2.026506 -7.302103,-0.533489c0.356452,1.594532 -1.805137,2.011568 -2.804306,2.320059"/>
   <path id="svg_20" fill="#BDD9D7" d="m20.741665,31.606113c-2.442812,-1.412821 -3.783449,-3.330992 -4.529358,-5.424961c-0.907172,0.314207 -1.997793,0.516348 -3.265019,0.602043c-0.477304,0.032957 -0.979324,0.050533 -1.506417,0.050533c-0.607366,0 -1.247562,-0.021971 -1.919687,-0.065916c2.239876,2.726763 4.995298,4.825117 10.096666,4.86467c0.377008,0 0.75041,-0.008789 1.123816,-0.026369"/>
   <path id="svg_21" fill="#D3ECEC" d="m17.119476,28.112518c-0.337866,-0.558098 -0.665632,-1.259008 -0.906628,-1.933561c-0.907355,0.316402 -1.998158,0.518543 -3.265561,0.604239c0.870549,0.575674 2.115407,1.109598 4.172189,1.329323"/>
  </g>
 </g>
</svg>