<svg width="48" height="48" xmlns="http://www.w3.org/2000/svg" xmlns:xlink="http://www.w3.org/1999/xlink">
 <metadata id="metadata18814">image/svg+xml</metadata>
 <defs>
  <path d="m5,2l-4,0l0,0c-0.55229,0 -1,-0.44772 -1,-1c0,-0.55229 0.44771,-1 1,-1l4,0l0,0c0.55228,0 1,0.44772 1,1c0,0.55229 -0.44772,1 -1,1z" id="b"/>
  <path d="m4,2l-3,0l0,0c-0.55229,0 -1,-0.44772 -1,-1c0,-0.55229 0.44771,-1 1,-1l3,0l0,0c0.55228,0 1,0.44772 1,1c0,0.55229 -0.44772,1 -1,1z" id="a"/>
  <path d="m1,4l0,0c-0.55196,0.00032 -0.99968,-0.44688 -1,-0.99884c0,-0.00039 0,-0.00077 0,-0.00116l0,-2l0,0c0,-0.55229 0.44772,-1 1,-1c0.55229,0 1,0.44771 1,1c0,0 0,0 0,0l0,2l0,-0.00002c0.00033,0.55197 -0.44686,0.99969 -0.99882,1.00002c-0.00039,0 -0.00078,0 -0.00116,0l-0.00002,0z" id="c"/>
 </defs>
 <g>
  <title>background</title>
  <rect fill="none" id="canvas_background" height="50" width="50" y="-1" x="-1"/>
 </g>
 <g>
  <title>Layer 1</title>
  <g fill="#000000" stroke-width="1.25" transform="matrix(0.8, 0, 0, 0.8, 0, 12)" id="g18804">
   <path stroke-width="1.25" id="path18718" d="m4.403225,9.096789l0,0c-0.55196,0.00032 -0.99968,-0.446871 -1,-0.99884c0,-0.000389 0,-0.000771 0,-0.00116l0,-18l0,0c0.00181,-1.6561 1.343899,-2.99819 3,-3l48,0l0,0c1.656101,0.00181 2.998192,1.3439 3,3l0,13l0,0c0,0.55228 -0.44772,1 -1,1c-0.552292,0 -1,-0.44772 -1,-1l0,-13l0,-0.00001c-0.000381,-0.55213 -0.44788,-0.999619 -1.000011,-0.99999l-47.999998,0l0,0c-0.552131,0.00037 -0.99963,0.44787 -1,1l0,18l0,-0.000019c0.00033,0.55197 -0.44686,0.999689 -0.99882,1.000019c-0.00039,0 -0.00078,0 -0.00116,0l-0.00001,0z"/>
   <use stroke-width="1.25" height="100%" width="100%" y="41.096789" x="28.403225" id="use18720" xlink:href="#b"/>
   <path stroke-width="1.25" id="path18722" d="m17.403225,43.09679l-11,0l0,0c-1.6561,-0.001808 -2.99819,-1.343903 -3,-3l0,-18l0,0c0,-0.552292 0.44772,-1 1,-1c0.55229,0 1,0.447708 1,1l0,18l0,0.000008c0.000381,0.552132 0.44788,0.999622 1.00001,0.999992l10.999999,0l0,0c0.55228,0 1,0.44772 1,1c0,0.552292 -0.44772,1 -1,1l-0.00001,0z"/>
   <path stroke-width="1.25" id="path18724" d="m54.403225,43.09679l-11,0l0,0c-0.552292,0 -1,-0.44772 -1,-1c0,-0.55228 0.447708,-1 1,-1l11,0l0,0c0.552132,-0.000381 0.99963,-0.447868 1,-1l0,-24l0,0c0,-0.552281 0.447708,-1.000001 1,-1.000001c0.552292,0 1,0.44772 1,1.000001c0,0 0,0 0,0l0,24l0,0c-0.001801,1.656097 -1.343899,2.998192 -3,3z"/>
   <path stroke-width="1.25" id="path18726" d="m10.403225,-2.903211l0,0c-1.65685,0 -3,-1.34315 -3,-3c0,-1.65685 1.34315,-3 3,-3c1.65685,0 3,1.34315 3,3l0,0c-0.00181,1.656099 -1.343901,2.99819 -3,3zm0,-4l0,0c-0.55228,0 -1,0.44772 -1,1c0,0.55228 0.44772,1 1,1c0.55228,0 1,-0.44772 1,-1l0,-0.00001c-0.00038,-0.55213 -0.44788,-0.99962 -1.00001,-0.99999l0.00001,0z"/>
   <path stroke-width="1.25" id="path18728" d="m50.403225,-2.903211l0,0c-1.656849,0 -3,-1.34315 -3,-3c0,-1.65685 1.343151,-3 3,-3c1.656849,0 3,1.34315 3,3l0,0c-0.001808,1.656099 -1.343899,2.99819 -3,3zm0,-4l0,0c-0.55228,0 -1,0.44772 -1,1c0,0.55228 0.44772,1 1,1c0.55228,0 1,-0.44772 1,-1l0,-0.00001c-0.000381,-0.55213 -0.44788,-0.99962 -1.000011,-0.99999l0.000011,0z"/>
   <path stroke-width="1.25" id="path18730" d="m10.403225,39.09679l0,0c-1.65685,0 -3,-1.343151 -3,-3c0,-1.656849 1.34315,-3 3,-3c1.65685,0 3,1.343151 3,3l0,0c-0.00181,1.656101 -1.343901,2.998192 -3,3zm0,-4l0,0c-0.55228,0 -1,0.44772 -1,1c0,0.55228 0.44772,1 1,1c0.55228,0 1,-0.44772 1,-1l0,-0.000011c-0.00038,-0.552128 -0.44788,-0.999619 -1.00001,-0.999989l0.00001,0z"/>
   <path stroke-width="1.25" id="path18732" d="m50.403225,39.09679l0,0c-1.656849,0 -3,-1.343151 -3,-3c0,-1.656849 1.343151,-3 3,-3c1.656849,0 3,1.343151 3,3l0,0c-0.001808,1.656101 -1.343899,2.998192 -3,3zm0,-4l0,0c-0.55228,0 -1,0.44772 -1,1c0,0.55228 0.44772,1 1,1c0.55228,0 1,-0.44772 1,-1l0,-0.000011c-0.000381,-0.552128 -0.44788,-0.999619 -1.000011,-0.999989l0.000011,0z"/>
   <path stroke-width="1.25" id="path18734" d="m58.403225,17.09679l-12,0l0,0c-1.10397,-0.001442 -1.998562,-0.89603 -2,-2.000001l0,-11l0,0.000019c0.001431,-1.10397 0.896011,-1.998569 1.999981,-2.000019l12,0l0,0c1.10397,0.00144 1.998558,0.89603 2,2l0,11l0,-0.000019c-0.001431,1.103971 -0.896,1.99857 -1.999981,2.00002zm-12,-13.000001l0,11l12.001999,0l-0.001999,-11l-12,0z"/>
   <path stroke-width="1.25" id="path18736" d="m43.403225,39.09679l-10,0l0,0c-0.55196,0.00032 -0.99968,-0.446869 -1,-0.99884c0,-0.000389 0,-0.000771 0,-0.00116l0,-11l0,0.000019c0.001431,-1.10397 0.896011,-1.998569 1.999981,-2.000019l8,0l0,0c1.10397,0.001438 1.998558,0.89603 2,2l0,11l0,-0.000019c0.000328,0.551968 -0.446861,0.999691 -0.998821,1.000019c-0.000381,0 -0.000759,0 -0.001099,0l-0.000061,0zm-9,-2l8,0l0,-10l-8,0l0,10z"/>
   <path stroke-width="1.25" id="path18738" d="m41.403255,47.09679l-6,0l0,0c-1.656101,-0.001812 -2.998192,-1.343903 -3,-3l0,-6l0,0.000019c-0.000328,-0.551971 0.446861,-0.999691 0.998821,-1.000019c0.000389,0 0.000778,0 0.00116,0l10,0l0,0c0.551968,-0.00032 0.99968,0.446869 1,0.99884c0,0.000378 0,0.000767 0,0.00116l0,6l0,0c-0.001801,1.656097 -1.343899,2.998188 -3,3l0.000019,0zm-7,-8l0,5l0,0.000008c0.000381,0.552132 0.44788,0.999622 1.000011,0.999992l6,0l0,0c0.552128,-0.00037 0.99963,-0.447872 1,-1l0,-5l-8.000011,0z"/>
   <path stroke-width="1.25" id="path18740" d="m28.403225,46.09679l-10,0l0,0c-1.10397,-0.001442 -1.99856,-0.89603 -2,-2l0,-10l0,0.000019c0.001431,-1.10397 0.896009,-1.998569 1.999981,-2.000019l10,0l0,0c1.10397,0.001438 1.998558,0.89603 2,2l0,10l0,-0.000019c-0.001431,1.10397 -0.896,1.998569 -1.999981,2.000019zm-10,-12l0,10l10.001999,0l-0.001999,-10l-10,0z"/>
   <path stroke-width="1.25" id="path18742" d="m36.403225,23.09679l-12,0l0,0c-1.10397,-0.001442 -1.99856,-0.89603 -2,-2l0,-12.000001l0,0.000019c0.001431,-1.10397 0.896009,-1.998569 1.999981,-2.000019l12,0l0,0c1.10397,0.00144 1.998558,0.89603 2,2l0,12.000001l0,-0.000019c-0.001431,1.10397 -0.896,1.998569 -1.999981,2.000019zm-12,-14.000001l0,12.000001l12.001999,0l-0.001999,-12.000001l-12,0z"/>
   <path stroke-width="1.25" id="path18744" d="m16.403215,-6.903211l0,0c-0.13064,-0.00161 -0.259701,-0.02882 -0.379881,-0.08008l0,0c-0.121249,-0.05056 -0.232909,-0.12156 -0.330119,-0.20992l0,0c-0.08788,-0.09976 -0.16209,-0.21075 -0.2207,-0.33008l0,0c-0.04784,-0.12086 -0.07139,-0.24996 -0.0693,-0.37992l0,0c0.00346,-0.26481 0.10708,-0.51849 0.29,-0.71l0,0c0.23601,-0.23439 0.57326,-0.33583 0.899409,-0.27051l0,0c0.06633,0.009769 0.13064,0.03022 0.19043,0.06055l0,0c0.061501,0.01968 0.11903,0.050099 0.16992,0.08984l0,0c0.057381,0.03446 0.111071,0.07471 0.16024,0.12012l0,0c0.182541,0.19176 0.286081,0.44528 0.290001,0.71l0,0c-0.00161,0.13064 -0.02882,0.2597 -0.08008,0.37988l0,0c-0.050821,0.12112 -0.12183,0.23273 -0.210001,0.33008l0,0c-0.097349,0.08817 -0.20896,0.15918 -0.33008,0.21l0,0c-0.120169,0.05125 -0.24921,0.07844 -0.379839,0.08004z"/>
   <path stroke-width="1.25" id="path18746" d="m16.403215,-2.903211l0,0c-0.13064,-0.00161 -0.259701,-0.02882 -0.379881,-0.08008l0,0c-0.121249,-0.05056 -0.232909,-0.12156 -0.330119,-0.20992l0,0c-0.08788,-0.099751 -0.16209,-0.21075 -0.2207,-0.33008l0,0c-0.04784,-0.12086 -0.07139,-0.24996 -0.0693,-0.37992l0,0c0.00143,-0.26522 0.10534,-0.51962 0.29,-0.71l0,0c0.09719,-0.08838 0.208839,-0.15942 0.330079,-0.21l0,0c0.17868,-0.07958 0.37792,-0.10077 0.56934,-0.06055l0,0c0.06633,0.009769 0.13064,0.03022 0.190432,0.06055l0,0c0.063719,0.02159 0.12418,0.05182 0.179689,0.08984l0,0c0.05249,0.03703 0.10273,0.07716 0.150459,0.12016l0.120121,0.14941l0,0c0.037659,0.056069 0.06786,0.116799 0.08984,0.180659l0,0c0.02898,0.05648 0.04908,0.11709 0.05957,0.17969l0,0c0.012129,0.0661 0.018969,0.13306 0.02047,0.20024l0,0c-0.00161,0.13064 -0.02882,0.2597 -0.08008,0.37988l0,0c-0.09103,0.25116 -0.288841,0.44897 -0.540001,0.54l0,0c-0.12019,0.05128 -0.24926,0.0785 -0.379919,0.08012z"/>
   <path stroke-width="1.25" id="path18748" d="m20.403225,-6.903211l0,0c-0.13064,-0.00161 -0.259701,-0.02882 -0.379881,-0.08008l0,0c-0.121248,-0.05056 -0.232908,-0.12156 -0.330118,-0.20992l0,0c-0.088171,-0.09735 -0.159182,-0.20896 -0.210001,-0.33008l0,0c-0.051239,-0.12019 -0.078421,-0.24927 -0.08,-0.37992l0,0c0.00346,-0.26481 0.10708,-0.51849 0.290001,-0.71l0,0c0.23601,-0.23439 0.573259,-0.33583 0.899408,-0.27051l0,0c0.06633,0.009769 0.13064,0.03022 0.190432,0.06055l0,0c0.063719,0.02159 0.12418,0.05182 0.179689,0.08984l0,0c0.0525,0.037021 0.102739,0.07713 0.150469,0.12012l0,0c0.182541,0.19176 0.286091,0.44528 0.290001,0.71l0,0c-0.00161,0.13064 -0.028811,0.2597 -0.08008,0.37988l0,0c-0.050819,0.12112 -0.12183,0.23273 -0.209999,0.33008l0,0c-0.097351,0.08817 -0.208961,0.15918 -0.33008,0.21l0,0c-0.120171,0.05125 -0.24921,0.07844 -0.379841,0.08004z"/>
   <path stroke-width="1.25" id="path18750" d="m20.403225,-2.903211l0,0c-0.13064,-0.00161 -0.259701,-0.02882 -0.379881,-0.08008l0,0c-0.121248,-0.05056 -0.232908,-0.12156 -0.330118,-0.20992l0,0c-0.088171,-0.09735 -0.159182,-0.208961 -0.210001,-0.33008l0,0c-0.051239,-0.120191 -0.078421,-0.24927 -0.08,-0.37992l0,0c0.001659,-0.06712 0.00819,-0.13403 0.019529,-0.2002l0,0c0.011301,-0.06253 0.0317,-0.12307 0.060551,-0.17969l0,0c0.02158,-0.06403 0.0518,-0.124809 0.08984,-0.180659l0,0c0.03702,-0.05216 0.07712,-0.10206 0.120081,-0.14945l0,0c0.400949,-0.37012 1.018969,-0.37012 1.41992,0l0,0c0.042969,0.04737 0.083078,0.09727 0.120119,0.14941l0,0c0.037661,0.056069 0.06786,0.116799 0.08984,0.180659l0,0c0.02898,0.05648 0.04908,0.11709 0.05957,0.17969l0,0c0.012159,0.0661 0.01903,0.13305 0.02055,0.20024l0,0c-0.00161,0.13064 -0.028811,0.2597 -0.08008,0.37988l0,0c-0.09103,0.25116 -0.288839,0.44897 -0.539999,0.54l0,0c-0.120192,0.05128 -0.24926,0.0785 -0.379921,0.08012z"/>
   <path stroke-width="1.25" id="path18752" d="m24.403215,-6.903211l0,0c-0.13064,-0.00161 -0.259701,-0.02882 -0.379881,-0.08008l0,0c-0.12125,-0.05056 -0.23291,-0.12156 -0.33012,-0.20992l0,0c-0.091089,-0.09725 -0.16564,-0.20875 -0.220699,-0.33008l0,0c-0.04784,-0.12086 -0.07139,-0.24996 -0.0693,-0.37992l0,0c0,-0.55229 0.44771,-1 1,-1c0.55228,0 1,0.44771 1,1c0,0 0,0 0,0l0,0c-0.00161,0.13064 -0.02882,0.2597 -0.08008,0.37988l0,0c-0.050821,0.12112 -0.12183,0.23273 -0.210001,0.33008l0,0c-0.18828,0.1878 -0.444,0.29227 -0.709919,0.29004z"/>
   <path stroke-width="1.25" id="path18754" d="m24.403225,-2.903211l0,0c-0.13064,-0.00161 -0.259701,-0.02882 -0.379881,-0.08008l0,0c-0.121248,-0.05056 -0.232908,-0.12156 -0.330118,-0.20992l0,0c-0.088171,-0.09735 -0.159182,-0.208961 -0.210001,-0.33008l0,0c-0.051239,-0.120191 -0.078421,-0.24927 -0.08,-0.37992l0,0c0.001431,-0.26522 0.105339,-0.51962 0.290001,-0.71l0,0c0.400949,-0.37012 1.018969,-0.37012 1.41992,0l0,0c0.184299,0.190619 0.28817,0.44486 0.290079,0.71l0,0c-0.00161,0.13064 -0.02882,0.2597 -0.08008,0.37988l0,0c-0.09103,0.25116 -0.288839,0.44897 -0.539999,0.54l0,0c-0.120192,0.05128 -0.24926,0.0785 -0.379921,0.08012z"/>
   <path stroke-width="1.25" id="path18756" d="m28.403215,-6.903211l0,0c-0.13064,-0.00161 -0.259701,-0.02882 -0.379881,-0.08008l0,0c-0.12125,-0.05056 -0.23291,-0.12156 -0.33012,-0.20992l0,0c-0.087879,-0.09976 -0.16209,-0.21075 -0.220699,-0.33008l0,0c-0.04784,-0.12086 -0.07139,-0.24996 -0.0693,-0.37992l0,0c0.00346,-0.26481 0.10708,-0.51849 0.289999,-0.71l0,0c0.236012,-0.23439 0.573261,-0.33583 0.89941,-0.27051l0,0c0.06633,0.009769 0.13064,0.03022 0.19043,0.06055l0,0c0.063721,0.02159 0.12418,0.05182 0.179691,0.08984l0,0c0.0525,0.037021 0.102739,0.07713 0.150469,0.12012l0,0c0.182541,0.19176 0.286091,0.44528 0.290001,0.71l0,0c-0.00161,0.13064 -0.028811,0.2597 -0.08008,0.37988l0,0c-0.050821,0.12112 -0.12183,0.23273 -0.210001,0.33008l0,0c-0.18828,0.1878 -0.444,0.29227 -0.709919,0.29004z"/>
   <path stroke-width="1.25" id="path18758" d="m28.403215,-2.903211l0,0c-0.13064,-0.00161 -0.259701,-0.02882 -0.379881,-0.08008l0,0c-0.12125,-0.05056 -0.23291,-0.12156 -0.33012,-0.20992l0,0c-0.087879,-0.099751 -0.16209,-0.21075 -0.220699,-0.33008l0,0c-0.04784,-0.12086 -0.07139,-0.24996 -0.0693,-0.37992l0,0c0.001429,-0.26522 0.105339,-0.51962 0.289999,-0.71l0,0c0.097191,-0.08838 0.208841,-0.15942 0.33008,-0.21l0,0c0.17868,-0.07958 0.37792,-0.10077 0.56934,-0.06055l0,0c0.06633,0.009769 0.13064,0.03022 0.190432,0.06055l0,0c0.063719,0.02159 0.12418,0.05182 0.179689,0.08984l0,0c0.05249,0.03703 0.10273,0.07716 0.150459,0.12016l0.120121,0.14941l0,0c0.037659,0.056069 0.06786,0.116799 0.08984,0.180659l0,0c0.02898,0.05648 0.04908,0.11709 0.05957,0.17969l0,0c0.012129,0.0661 0.018969,0.13306 0.02047,0.20024l0,0c-0.00161,0.13064 -0.02882,0.2597 -0.08008,0.37988l0,0c-0.09103,0.25116 -0.288841,0.44897 -0.540001,0.54l0,0c-0.12019,0.05128 -0.24926,0.0785 -0.379919,0.08012z"/>
   <path stroke-width="1.25" id="path18760" d="m32.403225,-6.903211l0,0c-0.26601,0.00263 -0.5219,-0.10188 -0.709999,-0.29l0,0c-0.088171,-0.09735 -0.159182,-0.20896 -0.210001,-0.33008l0,0c-0.051239,-0.12019 -0.078421,-0.24927 -0.08,-0.37992l0,0c0.001431,-0.26522 0.105339,-0.51962 0.290001,-0.71l0,0c0.388908,-0.39213 1.022068,-0.39474 1.4142,-0.00583c0.19075,0.18919 0.297359,0.447169 0.295799,0.71583l0,0c-0.00161,0.13064 -0.02882,0.2597 -0.080078,0.37988l0,0c-0.050823,0.12112 -0.121834,0.23273 -0.210003,0.33008l0,0c-0.18829,0.1878 -0.444,0.29227 -0.709919,0.29004z"/>
   <path stroke-width="1.25" id="path18762" d="m32.403225,-2.903211l0,0c-0.130638,-0.00161 -0.259701,-0.02882 -0.379879,-0.08008l0,0c-0.12125,-0.05056 -0.23291,-0.12156 -0.33012,-0.20992l0,0c-0.088171,-0.09735 -0.159182,-0.208961 -0.210001,-0.33008l0,0c-0.051239,-0.12019 -0.078421,-0.24927 -0.08,-0.37992l0,0c0.001659,-0.06712 0.00819,-0.13403 0.019529,-0.2002l0,0c0.011301,-0.06253 0.0317,-0.12307 0.060551,-0.17969l0,0c0.02158,-0.06403 0.0518,-0.124809 0.08984,-0.180659l0,0c0.03702,-0.05216 0.07712,-0.10206 0.120081,-0.14945l0,0c0.239449,-0.23603 0.580662,-0.33744 0.91016,-0.27051l0,0c0.062489,0.01145 0.123009,0.031839 0.179688,0.06055l0,0c0.063721,0.02159 0.12418,0.05182 0.179691,0.08984l0,0c0.051208,0.03468 0.098389,0.07497 0.140659,0.12012l0,0c0.29372,0.28171 0.381351,0.71633 0.21973,1.08984l0,0c-0.050751,0.12347 -0.12542,0.235681 -0.21973,0.33016l0,0c-0.18869,0.18119 -0.43866,0.28472 -0.700199,0.29z"/>
   <path stroke-width="1.25" id="path18764" d="m36.403233,-6.903211l0,0c-0.266006,0.00263 -0.521896,-0.10188 -0.709999,-0.29l0,0c-0.091087,-0.09725 -0.165638,-0.20875 -0.220699,-0.33008l0,0c-0.04784,-0.12086 -0.071388,-0.24996 -0.069302,-0.37992l0,-0.00001c-0.003208,-0.552269 0.441902,-1.00258 0.994171,-1.00579c0.268661,-0.001559 0.526649,0.10505 0.715832,0.29581l0,0c0.184269,0.19063 0.28812,0.44486 0.289997,0.709991l0,0c-0.00161,0.13065 -0.028816,0.25971 -0.080078,0.37988l0,0c-0.050819,0.12112 -0.12183,0.23273 -0.209999,0.33008l0,0c-0.097351,0.08818 -0.208961,0.15918 -0.330082,0.21l0,0c-0.120171,0.05125 -0.24921,0.07844 -0.379841,0.08004z"/>
   <path stroke-width="1.25" id="path18766" d="m36.403225,-2.903211l0,0c-0.130638,-0.00161 -0.259701,-0.02882 -0.379879,-0.08008l0,0c-0.12125,-0.05056 -0.23291,-0.12156 -0.33012,-0.20992l0,0c-0.088169,-0.09735 -0.15918,-0.208961 -0.209999,-0.33008l0,0c-0.051243,-0.120191 -0.078423,-0.24927 -0.080002,-0.37992l0,0c0.001431,-0.26522 0.105339,-0.51962 0.290001,-0.71l0,0c0.400948,-0.37012 1.01897,-0.37012 1.419918,0l0,0c0.184299,0.190619 0.28817,0.44486 0.290081,0.71l0,0c-0.00161,0.13064 -0.02882,0.2597 -0.080078,0.37988l0,0c-0.09103,0.25116 -0.288841,0.44897 -0.540001,0.54l0,0c-0.12019,0.05128 -0.24926,0.0785 -0.379921,0.08012z"/>
   <path stroke-width="1.25" id="path18768" d="m40.403225,-6.903211l0,0c-0.26601,0.00263 -0.5219,-0.10188 -0.709999,-0.29l0,0c-0.088169,-0.09735 -0.15918,-0.20896 -0.209999,-0.33008l0,0c-0.051243,-0.12019 -0.078423,-0.24927 -0.080002,-0.37992l0,0c0,-0.55229 0.447708,-1 1,-1c0.55228,0 1,0.44771 1,1c0,0 0,0 0,0l0,0c-0.00161,0.13064 -0.02882,0.2597 -0.080078,0.37988l0,0c-0.050823,0.12112 -0.121834,0.23273 -0.210003,0.33008l0,0c-0.188278,0.1878 -0.444,0.29227 -0.709919,0.29004z"/>
   <path stroke-width="1.25" id="path18770" d="m40.403214,-2.903211l0,0c-0.130642,-0.00161 -0.259701,-0.02882 -0.379879,-0.08008l0,0c-0.12125,-0.05056 -0.23291,-0.12156 -0.33012,-0.20992l0,0c-0.087883,-0.09975 -0.16209,-0.21075 -0.220703,-0.33008l0,0c-0.04784,-0.12086 -0.071388,-0.24996 -0.069298,-0.37992l0,0c0.001431,-0.26522 0.105339,-0.51962 0.290001,-0.71l0,0c0.047367,-0.04297 0.09726,-0.08308 0.14941,-0.12012l0,0c0.055847,-0.03804 0.116627,-0.06826 0.18066,-0.08984l0,0c0.056618,-0.02885 0.117157,-0.04925 0.179688,-0.06055l0,0c0.128231,-0.02931 0.261421,-0.02931 0.389652,0l0,0c0.06633,0.009769 0.130638,0.03022 0.19043,0.06055l0,0c0.063717,0.02159 0.12418,0.05182 0.179688,0.08984l0,0c0.05249,0.03702 0.102741,0.07713 0.150471,0.12012l0.120121,0.14941l0,0c0.037659,0.056069 0.06786,0.116799 0.08984,0.18066l0,0c0.02898,0.056479 0.04908,0.11708 0.05957,0.179689l0,0c0.012131,0.0661 0.01897,0.13306 0.02047,0.20024l0,0c-0.00161,0.13064 -0.02882,0.2597 -0.080082,0.37988l0,0c-0.09103,0.25116 -0.288837,0.44897 -0.539997,0.54l0,0c-0.12019,0.05128 -0.24926,0.0785 -0.379921,0.08012z"/>
   <path stroke-width="1.25" id="path18772" d="m44.403214,-6.903211l0,0c-0.26601,0.00263 -0.5219,-0.10188 -0.709999,-0.29l0,0c-0.087883,-0.09975 -0.16209,-0.21075 -0.220703,-0.33008l0,0c-0.04784,-0.12086 -0.071388,-0.24996 -0.069298,-0.37992l0,0c0.00346,-0.26481 0.107079,-0.51849 0.290001,-0.71l0,0c0.095577,-0.090469 0.20763,-0.16175 0.330078,-0.21l0,0c0.372421,-0.156119 0.80217,-0.073319 1.08992,0.21l0,0c0.182541,0.19176 0.286079,0.44528 0.290001,0.71l0,0c0.00174,0.13002 -0.022152,0.2591 -0.070309,0.37988l0,0c-0.057892,0.11951 -0.131802,0.23057 -0.219692,0.33012l0,0c-0.097351,0.08817 -0.208958,0.15918 -0.330078,0.21l0,0c-0.12019,0.05124 -0.249271,0.07842 -0.379921,0.08z"/>
   <path stroke-width="1.25" id="path18774" d="m44.403225,-2.903211l0,0c-0.130638,-0.00161 -0.259701,-0.02882 -0.379879,-0.08008l0,0c-0.12125,-0.05056 -0.23291,-0.12156 -0.33012,-0.20992l0,0c-0.088169,-0.09735 -0.15918,-0.208961 -0.209999,-0.33008l0,0c-0.051243,-0.12019 -0.078423,-0.24927 -0.080002,-0.37992l0,0c0.001659,-0.06712 0.00819,-0.13403 0.019531,-0.2002l0,0c0.011299,-0.06253 0.0317,-0.12307 0.060547,-0.17969l0,0c0.021584,-0.06403 0.051804,-0.124809 0.089844,-0.180659l0,0c0.037018,-0.05216 0.077118,-0.10206 0.120079,-0.14945l0,0c0.239449,-0.23603 0.580658,-0.33744 0.91016,-0.27051l0,0c0.062489,0.01145 0.123009,0.031839 0.179688,0.06055l0,0c0.063721,0.02159 0.12418,0.05182 0.179691,0.08984l0,0c0.051208,0.03468 0.098389,0.07497 0.140659,0.12012l0,0c0.29372,0.28171 0.381351,0.71633 0.21973,1.08984l0,0c-0.050751,0.12347 -0.12542,0.235681 -0.21973,0.33016l0,0c-0.18869,0.18119 -0.43866,0.28472 -0.700199,0.29z"/>
   <path stroke-width="1.25" id="path18776" d="m8.403225,23.09679l-6,0l0,0c-1.10397,-0.001438 -1.99856,-0.89603 -2,-2l0,-12.000001l0,0.000021c0.00143,-1.10397 0.89601,-1.998569 1.99998,-2.000021l6.00002,0l0,0c0.55196,-0.000319 0.99968,0.44688 1,0.99884c0,0.000391 0,0.000771 0,0.00116l0,14.000001l0,-0.000019c0.00033,0.551968 -0.44686,0.999691 -0.99882,1.000019c-0.00039,0 -0.00078,0 -0.00116,0l-0.00002,0zm-6,-14.000001l0,12.000001l5,0l0,-12.000001l-5,0z"/>
   <path stroke-width="1.25" id="path18778" d="m12.403225,28.09679l-4,0l0,0c-0.55196,0.00032 -0.99968,-0.44688 -1,-0.99884c0,-0.000389 0,-0.000771 0,-0.001202l0,-23.999959l0,0.000019c-0.00033,-0.55197 0.44686,-0.999689 0.99882,-1.000019c0.00039,0 0.00078,0 0.00116,0l4,0l0,0c0.55197,-0.00032 0.999681,0.44687 1,0.998839c0,0.000381 0,0.000771 0,0.001161l0,24.000001l0,-0.000019c0.00033,0.55196 -0.44686,0.999687 -0.99882,1.000019c-0.00038,0 -0.000759,0 -0.00114,0l-0.00002,0zm-3,-2l2,0l0,-22.000001l-2,0l0,22.000001z"/>
   <path stroke-width="1.25" id="path18780" d="m15.403225,4.096789l-3,0l0,0c-0.55229,0 -1,-0.44772 -1,-1c0,-0.55228 0.44771,-1 1,-1l3,0l0,0c0.55229,0 1,0.44772 1,1c0,0.55229 -0.44772,1 -1,1z"/>
   <use stroke-width="1.25" height="100%" width="100%" y="6.096789" x="11.403225" id="use18782" xlink:href="#a"/>
   <use stroke-width="1.25" height="100%" width="100%" y="10.096789" x="11.403225" id="use18784" xlink:href="#a"/>
   <use stroke-width="1.25" height="100%" width="100%" y="14.096789" x="11.403225" id="use18786" xlink:href="#a"/>
   <use stroke-width="1.25" height="100%" width="100%" y="18.096789" x="11.403225" id="use18788" xlink:href="#a"/>
   <use stroke-width="1.25" height="100%" width="100%" y="22.096789" x="11.403225" id="use18790" xlink:href="#a"/>
   <use stroke-width="1.25" height="100%" width="100%" y="26.096789" x="11.403225" id="use18792" xlink:href="#a"/>
   <path stroke-width="1.25" id="path18794" d="m38.403225,39.09679l0,0c-0.55196,0.00032 -0.99968,-0.44688 -1,-0.99884c0,-0.000389 0,-0.000771 0,-0.00116l0,-5l0,0c0,-0.552292 0.44772,-1 1,-1c0.55228,0 1,0.447708 1,1c0,0 0,0 0,0l0,5l0,-0.000019c0.000328,0.551968 -0.446861,0.999691 -0.998821,1.000019c-0.000389,0 -0.000778,0 -0.00116,0l-0.000019,0z"/>
   <use stroke-width="1.25" height="100%" width="100%" y="37.096789" x="20.403225" id="use18796" xlink:href="#c"/>
   <use stroke-width="1.25" height="100%" width="100%" y="37.096789" x="24.403225" id="use18798" xlink:href="#c"/>
   <use stroke-width="1.25" height="100%" width="100%" y="6.096789" x="48.403225" id="use18800" xlink:href="#b"/>
   <use stroke-width="1.25" height="100%" width="100%" y="11.096789" x="48.403225" id="use18802" xlink:href="#b"/>
  </g>
  <text id="text18806" font-family="'Helvetica Neue', Helvetica, Arial-Unicode, Arial, Sans-serif" font-weight="bold" font-size="5px" fill="#000000" y="75" x="0">Created by Ben Davis</text>
  <text id="text18808" font-family="'Helvetica Neue', Helvetica, Arial-Unicode, Arial, Sans-serif" font-weight="bold" font-size="5px" fill="#000000" y="80" x="0">from the Noun Project</text>
 </g>
</svg>