<svg width="48" height="48" xmlns="http://www.w3.org/2000/svg">
 <style type="text/css">.st0{display:none;}
	.st1{display:inline;}
	.st2{fill:none;stroke:#000000;stroke-width:0.1;stroke-miterlimit:10;}</style>

 <g>
  <title>background</title>
  <rect fill="none" id="canvas_background" height="50" width="50" y="-1" x="-1"/>
 </g>
 <g>
  <title>Layer 1</title>
  <g id="svg_1" class="st0">
   <g id="svg_2" class="st1">
    <rect id="svg_3" height="48" width="48" class="st2"/>
    <line id="svg_4" y2="124" x2="128" y1="124" x1="0" class="st2"/>
    <line id="svg_5" y2="120" x2="128" y1="120" x1="0" class="st2"/>
    <line id="svg_6" y2="116" x2="128" y1="116" x1="0" class="st2"/>
    <line id="svg_7" y2="112" x2="128" y1="112" x1="0" class="st2"/>
    <line id="svg_8" y2="108" x2="128" y1="108" x1="0" class="st2"/>
    <line id="svg_9" y2="104" x2="128" y1="104" x1="0" class="st2"/>
    <line id="svg_10" y2="100" x2="128" y1="100" x1="0" class="st2"/>
    <line id="svg_11" y2="96" x2="128" y1="96" x1="0" class="st2"/>
    <line id="svg_12" y2="92" x2="128" y1="92" x1="0" class="st2"/>
    <line id="svg_13" y2="88" x2="128" y1="88" x1="0" class="st2"/>
    <line id="svg_14" y2="84" x2="128" y1="84" x1="0" class="st2"/>
    <line id="svg_15" y2="80" x2="128" y1="80" x1="0" class="st2"/>
    <line id="svg_16" y2="76" x2="128" y1="76" x1="0" class="st2"/>
    <line id="svg_17" y2="72" x2="128" y1="72" x1="0" class="st2"/>
    <line id="svg_18" y2="68" x2="128" y1="68" x1="0" class="st2"/>
    <line id="svg_19" y2="64" x2="128" y1="64" x1="0" class="st2"/>
    <line id="svg_20" y2="60" x2="128" y1="60" x1="0" class="st2"/>
    <line id="svg_21" y2="56" x2="128" y1="56" x1="0" class="st2"/>
    <line id="svg_22" y2="52" x2="128" y1="52" x1="0" class="st2"/>
    <line id="svg_23" y2="48" x2="128" y1="48" x1="0" class="st2"/>
    <line id="svg_24" y2="44" x2="128" y1="44" x1="0" class="st2"/>
    <line id="svg_25" y2="40" x2="128" y1="40" x1="0" class="st2"/>
    <line id="svg_26" y2="36" x2="128" y1="36" x1="0" class="st2"/>
    <line id="svg_27" y2="32" x2="128" y1="32" x1="0" class="st2"/>
    <line id="svg_28" y2="28" x2="128" y1="28" x1="0" class="st2"/>
    <line id="svg_29" y2="24" x2="128" y1="24" x1="0" class="st2"/>
    <line id="svg_30" y2="20" x2="128" y1="20" x1="0" class="st2"/>
    <line id="svg_31" y2="16" x2="128" y1="16" x1="0" class="st2"/>
    <line id="svg_32" y2="12" x2="128" y1="12" x1="0" class="st2"/>
    <line id="svg_33" y2="8" x2="128" y1="8" x1="0" class="st2"/>
    <line id="svg_34" y2="4" x2="128" y1="4" x1="0" class="st2"/>
    <line id="svg_35" y2="128" x2="124" y1="0" x1="124" class="st2"/>
    <line id="svg_36" y2="128" x2="120" y1="0" x1="120" class="st2"/>
    <line id="svg_37" y2="128" x2="116" y1="0" x1="116" class="st2"/>
    <line id="svg_38" y2="128" x2="112" y1="0" x1="112" class="st2"/>
    <line id="svg_39" y2="128" x2="108" y1="0" x1="108" class="st2"/>
    <line id="svg_40" y2="128" x2="104" y1="0" x1="104" class="st2"/>
    <line id="svg_41" y2="128" x2="100" y1="0" x1="100" class="st2"/>
    <line id="svg_42" y2="128" x2="96" y1="0" x1="96" class="st2"/>
    <line id="svg_43" y2="128" x2="92" y1="0" x1="92" class="st2"/>
    <line id="svg_44" y2="128" x2="88" y1="0" x1="88" class="st2"/>
    <line id="svg_45" y2="128" x2="84" y1="0" x1="84" class="st2"/>
    <line id="svg_46" y2="128" x2="80" y1="0" x1="80" class="st2"/>
    <line id="svg_47" y2="128" x2="76" y1="0" x1="76" class="st2"/>
    <line id="svg_48" y2="128" x2="72" y1="0" x1="72" class="st2"/>
    <line id="svg_49" y2="128" x2="68" y1="0" x1="68" class="st2"/>
    <line id="svg_50" y2="128" x2="64" y1="0" x1="64" class="st2"/>
    <line id="svg_51" y2="128" x2="60" y1="0" x1="60" class="st2"/>
    <line id="svg_52" y2="128" x2="56" y1="0" x1="56" class="st2"/>
    <line id="svg_53" y2="128" x2="52" y1="0" x1="52" class="st2"/>
    <line id="svg_54" y2="128" x2="48" y1="0" x1="48" class="st2"/>
    <line id="svg_55" y2="128" x2="44" y1="0" x1="44" class="st2"/>
    <line id="svg_56" y2="128" x2="40" y1="0" x1="40" class="st2"/>
    <line id="svg_57" y2="128" x2="36" y1="0" x1="36" class="st2"/>
    <line id="svg_58" y2="128" x2="32" y1="0" x1="32" class="st2"/>
    <line id="svg_59" y2="128" x2="28" y1="0" x1="28" class="st2"/>
    <line id="svg_60" y2="128" x2="24" y1="0" x1="24" class="st2"/>
    <line id="svg_61" y2="128" x2="20" y1="0" x1="20" class="st2"/>
    <line id="svg_62" y2="128" x2="16" y1="0" x1="16" class="st2"/>
    <line id="svg_63" y2="128" x2="12" y1="0" x1="12" class="st2"/>
    <line id="svg_64" y2="128" x2="8" y1="0" x1="8" class="st2"/>
    <line id="svg_65" y2="128" x2="4" y1="0" x1="4" class="st2"/>
   </g>
  </g>
  <g id="svg_66">
   <g id="svg_67">
    <path id="svg_68" d="m2.678114,44.010414l10.773567,0l0,-19.1507l-10.773567,0l0,19.1507zm1.126157,-17.772953l8.521254,0l0,16.349277l-8.521254,0l0,-16.349277z"/>
    <path id="svg_69" d="m8.233821,32.115852c-2.440007,-0.045921 -3.828934,2.434025 -3.866472,2.525875c-0.187693,0.321472 -0.112616,0.734798 0.150155,0.96442c0.26277,0.229626 0.600616,0.137775 0.78831,-0.183701c0.037538,-0.091846 1.051079,-1.928844 2.890468,-1.882919c1.801851,0.045921 2.740315,1.882919 2.740315,1.882919c0.112616,0.229626 0.300308,0.321476 0.488001,0.321476c0.112616,0 0.187693,-0.045921 0.300308,-0.09185c0.262771,-0.183697 0.337848,-0.642948 0.187693,-0.964424c-0.037538,-0.183701 -1.276311,-2.525871 -3.678778,-2.571796z"/>
    <path id="svg_70" d="m8.196281,34.274326c-1.01354,-0.045925 -1.801851,0.688873 -2.177237,1.423672l0.938464,0.780724c0.075078,-0.137775 0.525539,-0.826649 1.238772,-0.826649c0.750772,0 1.163695,0.780724 1.163695,0.780724c0.112616,0.183701 0.300308,0.321476 0.488002,0.321476c0.112615,0 0.225231,-0.045925 0.300308,-0.09185c0.26277,-0.183701 0.337847,-0.642948 0.187693,-0.964424c-0.112616,-0.137775 -0.825848,-1.377747 -2.139698,-1.423672z"/>
    <path id="svg_71" d="m8.121205,36.478722c-0.412924,0 -0.78831,0.413326 -0.78831,0.964424s0.337848,0.964424 0.78831,0.964424s0.78831,-0.413322 0.78831,-0.964424s-0.337848,-0.964424 -0.78831,-0.964424zm0,1.37775c-0.187693,0 -0.337847,-0.183701 -0.337847,-0.413326s0.150154,-0.413326 0.337847,-0.413326s0.337847,0.183701 0.337847,0.413326s-0.112617,0.413326 -0.337847,0.413326z"/>
    <path id="svg_72" d="m44.98407,22.287918c-0.337849,-0.413326 -0.788311,-0.64295 -1.27631,-0.64295l-10.510799,0c-1.013538,0 -1.801851,1.010349 -1.801851,2.204399l0,3.582142l-4.654778,0l0,-7.118364l4.842474,0c1.689236,0 3.040623,-1.791073 3.040623,-3.99547c0,-3.398444 -2.102158,-6.15394 -4.69232,-6.15394l-0.675695,0c0.075075,-0.413325 0.112617,-0.826651 0.112617,-1.239974c0,-3.398446 -2.102161,-6.153942 -4.69232,-6.153942c-1.651697,0 -3.15324,1.102198 -3.979088,2.939196c-0.375387,-0.137774 -0.788311,-0.1837 -1.163696,-0.1837c-2.402468,0 -4.42955,2.204397 -4.654781,5.005819c-1.876927,0.826649 -3.153239,3.168821 -3.153239,5.832468c0,2.204397 1.351389,3.995468 3.040625,3.995468l4.842473,0l0,7.118368l-4.504627,0l0,-3.536221c0,-0.597025 -0.187693,-1.148125 -0.52554,-1.561449c-0.337846,-0.413324 -0.788309,-0.642948 -1.27631,-0.642948l-10.473258,0c-1.013541,0 -1.801851,1.010347 -1.801851,2.204397l0,21.171392c0,1.239975 0.825848,2.204399 1.801851,2.204399l10.473258,0c1.013541,0 1.80185,-1.010349 1.80185,-2.204399l0,-16.303349l5.555706,0l0,-8.496117l4.955091,0l0,8.496113l5.780935,0l0,16.257431c0,1.239971 0.82585,2.204395 1.801851,2.204395l10.473259,0c1.013542,0 1.801849,-1.010345 1.801849,-2.204395l0,-21.217321c0.03754,-0.597025 -0.15015,-1.148125 -0.487999,-1.561449zm-31.00685,22.732845c0,0.459248 -0.300308,0.826649 -0.675694,0.826649l-10.473258,0c-0.375386,0 -0.675694,-0.367401 -0.675694,-0.826649l0,-21.171396c0,-0.459249 0.300308,-0.826649 0.675694,-0.826649l10.473258,0c0.187693,0 0.375385,0.09185 0.488001,0.229624c0.112616,0.137775 0.187693,0.367399 0.187693,0.597025l0,21.171396zm0.713233,-26.085365c-1.051079,0 -1.914466,-1.148125 -1.914466,-2.617723c0,-2.15847 1.163695,-4.133244 2.740314,-4.638417l0.412924,-0.137774l0,-0.505176c0.037539,-2.296247 1.614158,-4.133245 3.566163,-4.133245c0.412926,0 0.863386,0.09185 1.276312,0.275549l0.488001,0.229625l0.225231,-0.597024c0.600616,-1.653298 1.83939,-2.663647 3.190779,-2.663647c1.952003,0 3.566162,2.158473 3.566162,4.776193c0,0.5511 -0.075079,1.148124 -0.225231,1.699225l-0.262772,0.918499l2.177238,0c1.952003,0 3.566164,2.15847 3.566164,4.776192c0,1.423674 -0.863388,2.617723 -1.914467,2.617723l-16.892353,0zm29.693001,26.085365c0,0.459248 -0.300308,0.826649 -0.675694,0.826649l-10.510799,0c-0.375385,0 -0.675694,-0.367401 -0.675694,-0.826649l0,-21.171396c0,-0.459249 0.300308,-0.826649 0.675694,-0.826649l10.473259,0c0.187695,0 0.375385,0.09185 0.487999,0.229624c0.112617,0.137775 0.187695,0.367399 0.187695,0.597025l0,21.171396l0.03754,0z"/>
    <path id="svg_73" d="m33.046806,44.010414l10.773567,0l0,-19.1507l-10.773567,0l0,19.1507zm1.126156,-17.772953l8.521252,0l0,16.349277l-8.521252,0l0,-16.349277z"/>
    <path id="svg_74" d="m38.602516,32.115852c-0.03754,0 -0.075077,0 -0.112617,0c-2.402466,0 -3.716316,2.434025 -3.791393,2.525875c-0.187695,0.321472 -0.112614,0.734798 0.150154,0.96442c0.262768,0.229626 0.600616,0.137775 0.788307,-0.183701c0.03754,-0.091846 1.051083,-1.928844 2.890472,-1.882919c1.801849,0.045921 2.740314,1.882919 2.740314,1.882919c0.112614,0.229626 0.300308,0.321476 0.487999,0.321476c0.112617,0 0.187695,-0.045921 0.300308,-0.09185c0.262772,-0.183697 0.337849,-0.642948 0.187695,-0.964424c0,-0.183701 -1.238773,-2.525871 -3.641239,-2.571796z"/>
    <path id="svg_75" d="m38.564976,34.274326c-1.013538,-0.045925 -1.801849,0.688873 -2.177235,1.423672l0.938461,0.780724c0.075081,-0.137775 0.525539,-0.826649 1.238773,-0.826649c0.750771,0 1.163696,0.780724 1.163696,0.780724c0.112617,0.183701 0.300308,0.321476 0.488003,0.321476c0.112614,0 0.225231,-0.045925 0.300304,-0.09185c0.262772,-0.183701 0.337849,-0.642948 0.187695,-0.964424c-0.112617,-0.137775 -0.825848,-1.377747 -2.139698,-1.423672z"/>
    <path id="svg_76" d="m38.527435,36.478722c-0.412922,0 -0.788307,0.413326 -0.788307,0.964424s0.337845,0.964424 0.788307,0.964424s0.788311,-0.413322 0.788311,-0.964424s-0.375385,-0.964424 -0.788311,-0.964424zm0,1.37775c-0.187691,0 -0.337849,-0.183701 -0.337849,-0.413326s0.150158,-0.413326 0.337849,-0.413326s0.337849,0.183701 0.337849,0.413326s-0.150154,0.413326 -0.337849,0.413326z"/>
   </g>
  </g>
  <text id="svg_77" font-family="'Helvetica Neue', Helvetica, Arial-Unicode, Arial, Sans-serif" font-weight="bold" font-size="5px" fill="#000000" y="143" x="0">Created by SBTS</text>
  <text id="svg_78" font-family="'Helvetica Neue', Helvetica, Arial-Unicode, Arial, Sans-serif" font-weight="bold" font-size="5px" fill="#000000" y="148" x="0">from the Noun Project</text>
 </g>
</svg>