<svg width="48" height="48" xmlns="http://www.w3.org/2000/svg">

 <g>
  <title>background</title>
  <rect fill="none" id="canvas_background" height="50" width="50" y="-1" x="-1"/>
 </g>
 <g>
  <title>Layer 1</title>
  <g id="svg_1">
   <path id="svg_2" fill-rule="evenodd" fill="#2d825b" d="m0.000586,-0.000237l0,24.92088c0.48118,0.462761 0.831075,1.833862 0.831075,3.442928s-0.349895,2.964012 -0.831075,3.426807l0,17.021328l9.278546,0l0,-4.231293c0,-1.084026 0.186805,-1.946674 0.417246,-1.946674l0.07524,0c0.230439,0 0.417246,0.862713 0.417246,1.946674l0,4.231293l12.838562,0l0,-4.231293c0,-1.084026 0.183392,-1.946674 0.413816,-1.946674l0.078663,0c0.23044,0 0.41382,0.862713 0.41382,1.946674l0,4.231293l23.256285,0l0,-17.005365c-0.557358,-0.300243 -0.981556,-1.782642 -0.981556,-3.555515s0.424232,-3.23912 0.981556,-3.539459l0,-24.711855l-47.19001,0l0.000586,0.000251zm0.605342,44.500897c0.187494,0 0.342004,0.710785 0.342004,1.592789s-0.15451,1.592789 -0.342004,1.592789s-0.338591,-0.710785 -0.338591,-1.592789s0.151095,-1.592789 0.338591,-1.592789zm46.081369,0c0.187492,0 0.338589,0.710785 0.338589,1.592789s-0.151096,1.592789 -0.338589,1.592789s-0.342007,-0.710785 -0.342007,-1.592789s0.15451,-1.592789 0.342007,-1.592789z"/>
   <g id="svg_3">
    <path id="svg_4" d="m1.97817,3.603583l3.576324,0l0,32.399297l-3.576324,0l0,-32.399297z"/>
    <g id="svg_5" fill="#e6e7e8">
     <path id="svg_6" d="m1.474739,4.54421l0.602278,0l0,0.919335l-0.602278,0l0,-0.919335z"/>
     <path id="svg_7" d="m1.474739,6.021771l0.602278,0l0,0.919335l-0.602278,0l0,-0.919335z"/>
     <path id="svg_8" d="m1.474739,7.504485l0.602278,0l0,0.919334l-0.602278,0l0,-0.919334z"/>
     <path id="svg_9" d="m1.474739,8.982045l0.602278,0l0,0.919328l-0.602278,0l0,-0.919328z"/>
     <path id="svg_10" d="m1.474739,10.46475l0.602278,0l0,0.919336l-0.602278,0l0,-0.919336z"/>
     <path id="svg_11" d="m1.491155,11.942327l0.602278,0l0,0.919335l-0.602278,0l0,-0.919335z"/>
     <path id="svg_12" d="m1.491155,13.425026l0.602278,0l0,0.919335l-0.602278,0l0,-0.919335z"/>
     <path id="svg_13" d="m1.491155,14.902601l0.602278,0l0,0.919336l-0.602278,0l0,-0.919336z"/>
     <path id="svg_14" d="m1.491155,16.3853l0.602278,0l0,0.919334l-0.602278,0l0,-0.919334z"/>
     <path id="svg_15" d="m1.491155,17.862875l0.602278,0l0,0.919336l-0.602278,0l0,-0.919336z"/>
     <path id="svg_16" d="m1.491155,19.345573l0.602278,0l0,0.919334l-0.602278,0l0,-0.919334z"/>
     <path id="svg_17" d="m1.491155,20.823149l0.602278,0l0,0.919336l-0.602278,0l0,-0.919336z"/>
     <path id="svg_18" d="m1.491155,22.305847l0.602278,0l0,0.919336l-0.602278,0l0,-0.919336z"/>
     <path id="svg_19" d="m1.491155,23.783424l0.602278,0l0,0.919336l-0.602278,0l0,-0.919336z"/>
     <path id="svg_20" d="m1.491155,25.266123l0.602278,0l0,0.919336l-0.602278,0l0,-0.919336z"/>
     <path id="svg_21" d="m1.491155,26.743698l0.602278,0l0,0.919334l-0.602278,0l0,-0.919334z"/>
     <path id="svg_22" d="m1.491155,28.226397l0.602278,0l0,0.919334l-0.602278,0l0,-0.919334z"/>
     <path id="svg_23" d="m1.491155,29.703972l0.602278,0l0,0.919336l-0.602278,0l0,-0.919336z"/>
     <path id="svg_24" d="m1.491155,31.18667l0.602278,0l0,0.919336l-0.602278,0l0,-0.919336z"/>
     <path id="svg_25" d="m1.491155,32.664249l0.602278,0l0,0.919334l-0.602278,0l0,-0.919334z"/>
     <path id="svg_26" d="m1.491155,34.146946l0.602278,0l0,0.919334l-0.602278,0l0,-0.919334z"/>
    </g>
    <g id="svg_27" fill="#e6e7e8">
     <path id="svg_28" d="m5.427432,4.54421l0.602278,0l0,0.919335l-0.602278,0l0,-0.919335z"/>
     <path id="svg_29" d="m5.427432,6.021771l0.602278,0l0,0.919335l-0.602278,0l0,-0.919335z"/>
     <path id="svg_30" d="m5.427432,7.504485l0.602278,0l0,0.919334l-0.602278,0l0,-0.919334z"/>
     <path id="svg_31" d="m5.427432,8.982045l0.602278,0l0,0.919328l-0.602278,0l0,-0.919328z"/>
     <path id="svg_32" d="m5.427432,10.46475l0.602278,0l0,0.919336l-0.602278,0l0,-0.919336z"/>
     <path id="svg_33" d="m5.443848,11.942327l0.602278,0l0,0.919335l-0.602278,0l0,-0.919335z"/>
     <path id="svg_34" d="m5.443848,13.425026l0.602278,0l0,0.919335l-0.602278,0l0,-0.919335z"/>
     <path id="svg_35" d="m5.443848,14.902601l0.602278,0l0,0.919336l-0.602278,0l0,-0.919336z"/>
     <path id="svg_36" d="m5.443848,16.3853l0.602278,0l0,0.919334l-0.602278,0l0,-0.919334z"/>
     <path id="svg_37" d="m5.443848,17.862875l0.602278,0l0,0.919336l-0.602278,0l0,-0.919336z"/>
     <path id="svg_38" d="m5.443848,19.345573l0.602278,0l0,0.919334l-0.602278,0l0,-0.919334z"/>
     <path id="svg_39" d="m5.443848,20.823149l0.602278,0l0,0.919336l-0.602278,0l0,-0.919336z"/>
     <path id="svg_40" d="m5.443848,22.305847l0.602278,0l0,0.919336l-0.602278,0l0,-0.919336z"/>
     <path id="svg_41" d="m5.443848,23.783424l0.602278,0l0,0.919336l-0.602278,0l0,-0.919336z"/>
     <path id="svg_42" d="m5.443848,25.266123l0.602278,0l0,0.919336l-0.602278,0l0,-0.919336z"/>
     <path id="svg_43" d="m5.443848,26.743698l0.602278,0l0,0.919334l-0.602278,0l0,-0.919334z"/>
     <path id="svg_44" d="m5.443848,28.226397l0.602278,0l0,0.919334l-0.602278,0l0,-0.919334z"/>
     <path id="svg_45" d="m5.443848,29.703972l0.602278,0l0,0.919336l-0.602278,0l0,-0.919336z"/>
     <path id="svg_46" d="m5.443848,31.18667l0.602278,0l0,0.919336l-0.602278,0l0,-0.919336z"/>
     <path id="svg_47" d="m5.443848,32.664249l0.602278,0l0,0.919334l-0.602278,0l0,-0.919334z"/>
     <path id="svg_48" d="m5.443848,34.146946l0.602278,0l0,0.919334l-0.602278,0l0,-0.919334z"/>
    </g>
   </g>
   <g id="svg_49">
    <path id="svg_50" d="m7.021686,3.603583l3.576323,0l0,32.399297l-3.576323,0l0,-32.399297z"/>
    <g id="svg_51" fill="#e6e7e8">
     <path id="svg_52" d="m6.518256,4.54421l0.602277,0l0,0.919335l-0.602277,0l0,-0.919335z"/>
     <path id="svg_53" d="m6.518256,6.021771l0.602277,0l0,0.919335l-0.602277,0l0,-0.919335z"/>
     <path id="svg_54" d="m6.518256,7.504485l0.602277,0l0,0.919334l-0.602277,0l0,-0.919334z"/>
     <path id="svg_55" d="m6.518256,8.982045l0.602277,0l0,0.919328l-0.602277,0l0,-0.919328z"/>
     <path id="svg_56" d="m6.518256,10.46475l0.602277,0l0,0.919336l-0.602277,0l0,-0.919336z"/>
     <path id="svg_57" d="m6.534671,11.942327l0.602278,0l0,0.919335l-0.602278,0l0,-0.919335z"/>
     <path id="svg_58" d="m6.534671,13.425026l0.602278,0l0,0.919335l-0.602278,0l0,-0.919335z"/>
     <path id="svg_59" d="m6.534671,14.902601l0.602278,0l0,0.919336l-0.602278,0l0,-0.919336z"/>
     <path id="svg_60" d="m6.534671,16.3853l0.602278,0l0,0.919334l-0.602278,0l0,-0.919334z"/>
     <path id="svg_61" d="m6.534671,17.862875l0.602278,0l0,0.919336l-0.602278,0l0,-0.919336z"/>
     <path id="svg_62" d="m6.534671,19.345573l0.602278,0l0,0.919334l-0.602278,0l0,-0.919334z"/>
     <path id="svg_63" d="m6.534671,20.823149l0.602278,0l0,0.919336l-0.602278,0l0,-0.919336z"/>
     <path id="svg_64" d="m6.534671,22.305847l0.602278,0l0,0.919336l-0.602278,0l0,-0.919336z"/>
     <path id="svg_65" d="m6.534671,23.783424l0.602278,0l0,0.919336l-0.602278,0l0,-0.919336z"/>
     <path id="svg_66" d="m6.534671,25.266123l0.602278,0l0,0.919336l-0.602278,0l0,-0.919336z"/>
     <path id="svg_67" d="m6.534671,26.743698l0.602278,0l0,0.919334l-0.602278,0l0,-0.919334z"/>
     <path id="svg_68" d="m6.534671,28.226397l0.602278,0l0,0.919334l-0.602278,0l0,-0.919334z"/>
     <path id="svg_69" d="m6.534671,29.703972l0.602278,0l0,0.919336l-0.602278,0l0,-0.919336z"/>
     <path id="svg_70" d="m6.534671,31.18667l0.602278,0l0,0.919336l-0.602278,0l0,-0.919336z"/>
     <path id="svg_71" d="m6.534671,32.664249l0.602278,0l0,0.919334l-0.602278,0l0,-0.919334z"/>
     <path id="svg_72" d="m6.534671,34.146946l0.602278,0l0,0.919334l-0.602278,0l0,-0.919334z"/>
    </g>
    <g id="svg_73" fill="#e6e7e8">
     <path id="svg_74" d="m10.470949,4.54421l0.602278,0l0,0.919335l-0.602278,0l0,-0.919335z"/>
     <path id="svg_75" d="m10.470949,6.021771l0.602278,0l0,0.919335l-0.602278,0l0,-0.919335z"/>
     <path id="svg_76" d="m10.470949,7.504485l0.602278,0l0,0.919334l-0.602278,0l0,-0.919334z"/>
     <path id="svg_77" d="m10.470949,8.982045l0.602278,0l0,0.919328l-0.602278,0l0,-0.919328z"/>
     <path id="svg_78" d="m10.470949,10.46475l0.602278,0l0,0.919336l-0.602278,0l0,-0.919336z"/>
     <path id="svg_79" d="m10.487364,11.942327l0.602279,0l0,0.919335l-0.602279,0l0,-0.919335z"/>
     <path id="svg_80" d="m10.487364,13.425026l0.602279,0l0,0.919335l-0.602279,0l0,-0.919335z"/>
     <path id="svg_81" d="m10.487364,14.902601l0.602279,0l0,0.919336l-0.602279,0l0,-0.919336z"/>
     <path id="svg_82" d="m10.487364,16.3853l0.602279,0l0,0.919334l-0.602279,0l0,-0.919334z"/>
     <path id="svg_83" d="m10.487364,17.862875l0.602279,0l0,0.919336l-0.602279,0l0,-0.919336z"/>
     <path id="svg_84" d="m10.487364,19.345573l0.602279,0l0,0.919334l-0.602279,0l0,-0.919334z"/>
     <path id="svg_85" d="m10.487364,20.823149l0.602279,0l0,0.919336l-0.602279,0l0,-0.919336z"/>
     <path id="svg_86" d="m10.487364,22.305847l0.602279,0l0,0.919336l-0.602279,0l0,-0.919336z"/>
     <path id="svg_87" d="m10.487364,23.783424l0.602279,0l0,0.919336l-0.602279,0l0,-0.919336z"/>
     <path id="svg_88" d="m10.487364,25.266123l0.602279,0l0,0.919336l-0.602279,0l0,-0.919336z"/>
     <path id="svg_89" d="m10.487364,26.743698l0.602279,0l0,0.919334l-0.602279,0l0,-0.919334z"/>
     <path id="svg_90" d="m10.487364,28.226397l0.602279,0l0,0.919334l-0.602279,0l0,-0.919334z"/>
     <path id="svg_91" d="m10.487364,29.703972l0.602279,0l0,0.919336l-0.602279,0l0,-0.919336z"/>
     <path id="svg_92" d="m10.487364,31.18667l0.602279,0l0,0.919336l-0.602279,0l0,-0.919336z"/>
     <path id="svg_93" d="m10.487364,32.664249l0.602279,0l0,0.919334l-0.602279,0l0,-0.919334z"/>
     <path id="svg_94" d="m10.487364,34.146946l0.602279,0l0,0.919334l-0.602279,0l0,-0.919334z"/>
    </g>
   </g>
   <g id="svg_95">
    <path id="svg_96" d="m12.001266,3.603583l3.576324,0l0,32.399297l-3.576324,0l0,-32.399297z"/>
    <g id="svg_97" fill="#e6e7e8">
     <path id="svg_98" d="m11.497835,4.54421l0.602279,0l0,0.919335l-0.602279,0l0,-0.919335z"/>
     <path id="svg_99" d="m11.497835,6.021771l0.602279,0l0,0.919335l-0.602279,0l0,-0.919335z"/>
     <path id="svg_100" d="m11.497835,7.504485l0.602279,0l0,0.919334l-0.602279,0l0,-0.919334z"/>
     <path id="svg_101" d="m11.497835,8.982045l0.602279,0l0,0.919328l-0.602279,0l0,-0.919328z"/>
     <path id="svg_102" d="m11.497835,10.46475l0.602279,0l0,0.919336l-0.602279,0l0,-0.919336z"/>
     <path id="svg_103" d="m11.514252,11.942327l0.602278,0l0,0.919335l-0.602278,0l0,-0.919335z"/>
     <path id="svg_104" d="m11.514252,13.425026l0.602278,0l0,0.919335l-0.602278,0l0,-0.919335z"/>
     <path id="svg_105" d="m11.514252,14.902601l0.602278,0l0,0.919336l-0.602278,0l0,-0.919336z"/>
     <path id="svg_106" d="m11.514252,16.3853l0.602278,0l0,0.919334l-0.602278,0l0,-0.919334z"/>
     <path id="svg_107" d="m11.514252,17.862875l0.602278,0l0,0.919336l-0.602278,0l0,-0.919336z"/>
     <path id="svg_108" d="m11.514252,19.345573l0.602278,0l0,0.919334l-0.602278,0l0,-0.919334z"/>
     <path id="svg_109" d="m11.514252,20.823149l0.602278,0l0,0.919336l-0.602278,0l0,-0.919336z"/>
     <path id="svg_110" d="m11.514252,22.305847l0.602278,0l0,0.919336l-0.602278,0l0,-0.919336z"/>
     <path id="svg_111" d="m11.514252,23.783424l0.602278,0l0,0.919336l-0.602278,0l0,-0.919336z"/>
     <path id="svg_112" d="m11.514252,25.266123l0.602278,0l0,0.919336l-0.602278,0l0,-0.919336z"/>
     <path id="svg_113" d="m11.514252,26.743698l0.602278,0l0,0.919334l-0.602278,0l0,-0.919334z"/>
     <path id="svg_114" d="m11.514252,28.226397l0.602278,0l0,0.919334l-0.602278,0l0,-0.919334z"/>
     <path id="svg_115" d="m11.514252,29.703972l0.602278,0l0,0.919336l-0.602278,0l0,-0.919336z"/>
     <path id="svg_116" d="m11.514252,31.18667l0.602278,0l0,0.919336l-0.602278,0l0,-0.919336z"/>
     <path id="svg_117" d="m11.514252,32.664249l0.602278,0l0,0.919334l-0.602278,0l0,-0.919334z"/>
     <path id="svg_118" d="m11.514252,34.146946l0.602278,0l0,0.919334l-0.602278,0l0,-0.919334z"/>
    </g>
    <g id="svg_119" fill="#e6e7e8">
     <path id="svg_120" d="m15.450529,4.54421l0.602278,0l0,0.919335l-0.602278,0l0,-0.919335z"/>
     <path id="svg_121" d="m15.450529,6.021771l0.602278,0l0,0.919335l-0.602278,0l0,-0.919335z"/>
     <path id="svg_122" d="m15.450529,7.504485l0.602278,0l0,0.919334l-0.602278,0l0,-0.919334z"/>
     <path id="svg_123" d="m15.450529,8.982045l0.602278,0l0,0.919328l-0.602278,0l0,-0.919328z"/>
     <path id="svg_124" d="m15.450529,10.46475l0.602278,0l0,0.919336l-0.602278,0l0,-0.919336z"/>
     <path id="svg_125" d="m15.466944,11.942327l0.60228,0l0,0.919335l-0.60228,0l0,-0.919335z"/>
     <path id="svg_126" d="m15.466944,13.425026l0.60228,0l0,0.919335l-0.60228,0l0,-0.919335z"/>
     <path id="svg_127" d="m15.466944,14.902601l0.60228,0l0,0.919336l-0.60228,0l0,-0.919336z"/>
     <path id="svg_128" d="m15.466944,16.3853l0.60228,0l0,0.919334l-0.60228,0l0,-0.919334z"/>
     <path id="svg_129" d="m15.466944,17.862875l0.60228,0l0,0.919336l-0.60228,0l0,-0.919336z"/>
     <path id="svg_130" d="m15.466944,19.345573l0.60228,0l0,0.919334l-0.60228,0l0,-0.919334z"/>
     <path id="svg_131" d="m15.466944,20.823149l0.60228,0l0,0.919336l-0.60228,0l0,-0.919336z"/>
     <path id="svg_132" d="m15.466944,22.305847l0.60228,0l0,0.919336l-0.60228,0l0,-0.919336z"/>
     <path id="svg_133" d="m15.466944,23.783424l0.60228,0l0,0.919336l-0.60228,0l0,-0.919336z"/>
     <path id="svg_134" d="m15.466944,25.266123l0.60228,0l0,0.919336l-0.60228,0l0,-0.919336z"/>
     <path id="svg_135" d="m15.466944,26.743698l0.60228,0l0,0.919334l-0.60228,0l0,-0.919334z"/>
     <path id="svg_136" d="m15.466944,28.226397l0.60228,0l0,0.919334l-0.60228,0l0,-0.919334z"/>
     <path id="svg_137" d="m15.466944,29.703972l0.60228,0l0,0.919336l-0.60228,0l0,-0.919336z"/>
     <path id="svg_138" d="m15.466944,31.18667l0.60228,0l0,0.919336l-0.60228,0l0,-0.919336z"/>
     <path id="svg_139" d="m15.466944,32.664249l0.60228,0l0,0.919334l-0.60228,0l0,-0.919334z"/>
     <path id="svg_140" d="m15.466944,34.146946l0.60228,0l0,0.919334l-0.60228,0l0,-0.919334z"/>
    </g>
   </g>
   <g id="svg_141">
    <path id="svg_142" d="m16.92569,3.603583l3.576324,0l0,32.399297l-3.576324,0l0,-32.399297z"/>
    <g id="svg_143" fill="#e6e7e8">
     <path id="svg_144" d="m16.422258,4.54421l0.602278,0l0,0.919335l-0.602278,0l0,-0.919335z"/>
     <path id="svg_145" d="m16.422258,6.021771l0.602278,0l0,0.919335l-0.602278,0l0,-0.919335z"/>
     <path id="svg_146" d="m16.422258,7.504485l0.602278,0l0,0.919334l-0.602278,0l0,-0.919334z"/>
     <path id="svg_147" d="m16.422258,8.982045l0.602278,0l0,0.919328l-0.602278,0l0,-0.919328z"/>
     <path id="svg_148" d="m16.422258,10.46475l0.602278,0l0,0.919336l-0.602278,0l0,-0.919336z"/>
     <path id="svg_149" d="m16.438673,11.942327l0.60228,0l0,0.919335l-0.60228,0l0,-0.919335z"/>
     <path id="svg_150" d="m16.438673,13.425026l0.60228,0l0,0.919335l-0.60228,0l0,-0.919335z"/>
     <path id="svg_151" d="m16.438673,14.902601l0.60228,0l0,0.919336l-0.60228,0l0,-0.919336z"/>
     <path id="svg_152" d="m16.438673,16.3853l0.60228,0l0,0.919334l-0.60228,0l0,-0.919334z"/>
     <path id="svg_153" d="m16.438673,17.862875l0.60228,0l0,0.919336l-0.60228,0l0,-0.919336z"/>
     <path id="svg_154" d="m16.438673,19.345573l0.60228,0l0,0.919334l-0.60228,0l0,-0.919334z"/>
     <path id="svg_155" d="m16.438673,20.823149l0.60228,0l0,0.919336l-0.60228,0l0,-0.919336z"/>
     <path id="svg_156" d="m16.438673,22.305847l0.60228,0l0,0.919336l-0.60228,0l0,-0.919336z"/>
     <path id="svg_157" d="m16.438673,23.783424l0.60228,0l0,0.919336l-0.60228,0l0,-0.919336z"/>
     <path id="svg_158" d="m16.438673,25.266123l0.60228,0l0,0.919336l-0.60228,0l0,-0.919336z"/>
     <path id="svg_159" d="m16.438673,26.743698l0.60228,0l0,0.919334l-0.60228,0l0,-0.919334z"/>
     <path id="svg_160" d="m16.438673,28.226397l0.60228,0l0,0.919334l-0.60228,0l0,-0.919334z"/>
     <path id="svg_161" d="m16.438673,29.703972l0.60228,0l0,0.919336l-0.60228,0l0,-0.919336z"/>
     <path id="svg_162" d="m16.438673,31.18667l0.60228,0l0,0.919336l-0.60228,0l0,-0.919336z"/>
     <path id="svg_163" d="m16.438673,32.664249l0.60228,0l0,0.919334l-0.60228,0l0,-0.919334z"/>
     <path id="svg_164" d="m16.438673,34.146946l0.60228,0l0,0.919334l-0.60228,0l0,-0.919334z"/>
    </g>
    <g id="svg_165" fill="#e6e7e8">
     <path id="svg_166" d="m20.37495,4.54421l0.602278,0l0,0.919335l-0.602278,0l0,-0.919335z"/>
     <path id="svg_167" d="m20.37495,6.021771l0.602278,0l0,0.919335l-0.602278,0l0,-0.919335z"/>
     <path id="svg_168" d="m20.37495,7.504485l0.602278,0l0,0.919334l-0.602278,0l0,-0.919334z"/>
     <path id="svg_169" d="m20.37495,8.982045l0.602278,0l0,0.919328l-0.602278,0l0,-0.919328z"/>
     <path id="svg_170" d="m20.37495,10.46475l0.602278,0l0,0.919336l-0.602278,0l0,-0.919336z"/>
     <path id="svg_171" d="m20.391365,11.942327l0.60228,0l0,0.919335l-0.60228,0l0,-0.919335z"/>
     <path id="svg_172" d="m20.391365,13.425026l0.60228,0l0,0.919335l-0.60228,0l0,-0.919335z"/>
     <path id="svg_173" d="m20.391365,14.902601l0.60228,0l0,0.919336l-0.60228,0l0,-0.919336z"/>
     <path id="svg_174" d="m20.391365,16.3853l0.60228,0l0,0.919334l-0.60228,0l0,-0.919334z"/>
     <path id="svg_175" d="m20.391365,17.862875l0.60228,0l0,0.919336l-0.60228,0l0,-0.919336z"/>
     <path id="svg_176" d="m20.391365,19.345573l0.60228,0l0,0.919334l-0.60228,0l0,-0.919334z"/>
     <path id="svg_177" d="m20.391365,20.823149l0.60228,0l0,0.919336l-0.60228,0l0,-0.919336z"/>
     <path id="svg_178" d="m20.391365,22.305847l0.60228,0l0,0.919336l-0.60228,0l0,-0.919336z"/>
     <path id="svg_179" d="m20.391365,23.783424l0.60228,0l0,0.919336l-0.60228,0l0,-0.919336z"/>
     <path id="svg_180" d="m20.391365,25.266123l0.60228,0l0,0.919336l-0.60228,0l0,-0.919336z"/>
     <path id="svg_181" d="m20.391365,26.743698l0.60228,0l0,0.919334l-0.60228,0l0,-0.919334z"/>
     <path id="svg_182" d="m20.391365,28.226397l0.60228,0l0,0.919334l-0.60228,0l0,-0.919334z"/>
     <path id="svg_183" d="m20.391365,29.703972l0.60228,0l0,0.919336l-0.60228,0l0,-0.919336z"/>
     <path id="svg_184" d="m20.391365,31.18667l0.60228,0l0,0.919336l-0.60228,0l0,-0.919336z"/>
     <path id="svg_185" d="m20.391365,32.664249l0.60228,0l0,0.919334l-0.60228,0l0,-0.919334z"/>
     <path id="svg_186" d="m20.391365,34.146946l0.60228,0l0,0.919334l-0.60228,0l0,-0.919334z"/>
    </g>
   </g>
   <g id="svg_187">
    <path id="svg_188" d="m26.57951,3.603583l3.57633,0l0,32.399297l-3.57633,0l0,-32.399297z"/>
    <g id="svg_189" fill="#e6e7e8">
     <path id="svg_190" d="m26.076078,4.54421l0.602276,0l0,0.919335l-0.602276,0l0,-0.919335z"/>
     <path id="svg_191" d="m26.076078,6.021771l0.602276,0l0,0.919335l-0.602276,0l0,-0.919335z"/>
     <path id="svg_192" d="m26.076078,7.504485l0.602276,0l0,0.919334l-0.602276,0l0,-0.919334z"/>
     <path id="svg_193" d="m26.076078,8.982045l0.602276,0l0,0.919328l-0.602276,0l0,-0.919328z"/>
     <path id="svg_194" d="m26.076078,10.46475l0.602276,0l0,0.919336l-0.602276,0l0,-0.919336z"/>
     <path id="svg_195" d="m26.092493,11.942327l0.602282,0l0,0.919335l-0.602282,0l0,-0.919335z"/>
     <path id="svg_196" d="m26.092493,13.425026l0.602282,0l0,0.919335l-0.602282,0l0,-0.919335z"/>
     <path id="svg_197" d="m26.092493,14.902601l0.602282,0l0,0.919336l-0.602282,0l0,-0.919336z"/>
     <path id="svg_198" d="m26.092493,16.3853l0.602282,0l0,0.919334l-0.602282,0l0,-0.919334z"/>
     <path id="svg_199" d="m26.092493,17.862875l0.602282,0l0,0.919336l-0.602282,0l0,-0.919336z"/>
     <path id="svg_200" d="m26.092493,19.345573l0.602282,0l0,0.919334l-0.602282,0l0,-0.919334z"/>
     <path id="svg_201" d="m26.092493,20.823149l0.602282,0l0,0.919336l-0.602282,0l0,-0.919336z"/>
     <path id="svg_202" d="m26.092493,22.305847l0.602282,0l0,0.919336l-0.602282,0l0,-0.919336z"/>
     <path id="svg_203" d="m26.092493,23.783424l0.602282,0l0,0.919336l-0.602282,0l0,-0.919336z"/>
     <path id="svg_204" d="m26.092493,25.266123l0.602282,0l0,0.919336l-0.602282,0l0,-0.919336z"/>
     <path id="svg_205" d="m26.092493,26.743698l0.602282,0l0,0.919334l-0.602282,0l0,-0.919334z"/>
     <path id="svg_206" d="m26.092493,28.226397l0.602282,0l0,0.919334l-0.602282,0l0,-0.919334z"/>
     <path id="svg_207" d="m26.092493,29.703972l0.602282,0l0,0.919336l-0.602282,0l0,-0.919336z"/>
     <path id="svg_208" d="m26.092493,31.18667l0.602282,0l0,0.919336l-0.602282,0l0,-0.919336z"/>
     <path id="svg_209" d="m26.092493,32.664249l0.602282,0l0,0.919334l-0.602282,0l0,-0.919334z"/>
     <path id="svg_210" d="m26.092493,34.146946l0.602282,0l0,0.919334l-0.602282,0l0,-0.919334z"/>
    </g>
    <g id="svg_211" fill="#e6e7e8">
     <path id="svg_212" d="m30.028774,4.54421l0.602276,0l0,0.919335l-0.602276,0l0,-0.919335z"/>
     <path id="svg_213" d="m30.028774,6.021771l0.602276,0l0,0.919335l-0.602276,0l0,-0.919335z"/>
     <path id="svg_214" d="m30.028774,7.504485l0.602276,0l0,0.919334l-0.602276,0l0,-0.919334z"/>
     <path id="svg_215" d="m30.028774,8.982045l0.602276,0l0,0.919328l-0.602276,0l0,-0.919328z"/>
     <path id="svg_216" d="m30.028774,10.46475l0.602276,0l0,0.919336l-0.602276,0l0,-0.919336z"/>
     <path id="svg_217" d="m30.045187,11.942327l0.60228,0l0,0.919335l-0.60228,0l0,-0.919335z"/>
     <path id="svg_218" d="m30.045187,13.425026l0.60228,0l0,0.919335l-0.60228,0l0,-0.919335z"/>
     <path id="svg_219" d="m30.045187,14.902601l0.60228,0l0,0.919336l-0.60228,0l0,-0.919336z"/>
     <path id="svg_220" d="m30.045187,16.3853l0.60228,0l0,0.919334l-0.60228,0l0,-0.919334z"/>
     <path id="svg_221" d="m30.045187,17.862875l0.60228,0l0,0.919336l-0.60228,0l0,-0.919336z"/>
     <path id="svg_222" d="m30.045187,19.345573l0.60228,0l0,0.919334l-0.60228,0l0,-0.919334z"/>
     <path id="svg_223" d="m30.045187,20.823149l0.60228,0l0,0.919336l-0.60228,0l0,-0.919336z"/>
     <path id="svg_224" d="m30.045187,22.305847l0.60228,0l0,0.919336l-0.60228,0l0,-0.919336z"/>
     <path id="svg_225" d="m30.045187,23.783424l0.60228,0l0,0.919336l-0.60228,0l0,-0.919336z"/>
     <path id="svg_226" d="m30.045187,25.266123l0.60228,0l0,0.919336l-0.60228,0l0,-0.919336z"/>
     <path id="svg_227" d="m30.045187,26.743698l0.60228,0l0,0.919334l-0.60228,0l0,-0.919334z"/>
     <path id="svg_228" d="m30.045187,28.226397l0.60228,0l0,0.919334l-0.60228,0l0,-0.919334z"/>
     <path id="svg_229" d="m30.045187,29.703972l0.60228,0l0,0.919336l-0.60228,0l0,-0.919336z"/>
     <path id="svg_230" d="m30.045187,31.18667l0.60228,0l0,0.919336l-0.60228,0l0,-0.919336z"/>
     <path id="svg_231" d="m30.045187,32.664249l0.60228,0l0,0.919334l-0.60228,0l0,-0.919334z"/>
     <path id="svg_232" d="m30.045187,34.146946l0.60228,0l0,0.919334l-0.60228,0l0,-0.919334z"/>
    </g>
   </g>
   <g id="svg_233">
    <path id="svg_234" d="m31.623661,3.603583l3.576321,0l0,32.399297l-3.576321,0l0,-32.399297z"/>
    <g id="svg_235" fill="#e6e7e8">
     <path id="svg_236" d="m31.120228,4.54421l0.602283,0l0,0.919335l-0.602283,0l0,-0.919335z"/>
     <path id="svg_237" d="m31.120228,6.021771l0.602283,0l0,0.919335l-0.602283,0l0,-0.919335z"/>
     <path id="svg_238" d="m31.120228,7.504485l0.602283,0l0,0.919334l-0.602283,0l0,-0.919334z"/>
     <path id="svg_239" d="m31.120228,8.982045l0.602283,0l0,0.919328l-0.602283,0l0,-0.919328z"/>
     <path id="svg_240" d="m31.120228,10.46475l0.602283,0l0,0.919336l-0.602283,0l0,-0.919336z"/>
     <path id="svg_241" d="m31.13665,11.942327l0.60227,0l0,0.919335l-0.60227,0l0,-0.919335z"/>
     <path id="svg_242" d="m31.13665,13.425026l0.60227,0l0,0.919335l-0.60227,0l0,-0.919335z"/>
     <path id="svg_243" d="m31.13665,14.902601l0.60227,0l0,0.919336l-0.60227,0l0,-0.919336z"/>
     <path id="svg_244" d="m31.13665,16.3853l0.60227,0l0,0.919334l-0.60227,0l0,-0.919334z"/>
     <path id="svg_245" d="m31.13665,17.862875l0.60227,0l0,0.919336l-0.60227,0l0,-0.919336z"/>
     <path id="svg_246" d="m31.13665,19.345573l0.60227,0l0,0.919334l-0.60227,0l0,-0.919334z"/>
     <path id="svg_247" d="m31.13665,20.823149l0.60227,0l0,0.919336l-0.60227,0l0,-0.919336z"/>
     <path id="svg_248" d="m31.13665,22.305847l0.60227,0l0,0.919336l-0.60227,0l0,-0.919336z"/>
     <path id="svg_249" d="m31.13665,23.783424l0.60227,0l0,0.919336l-0.60227,0l0,-0.919336z"/>
     <path id="svg_250" d="m31.13665,25.266123l0.60227,0l0,0.919336l-0.60227,0l0,-0.919336z"/>
     <path id="svg_251" d="m31.13665,26.743698l0.60227,0l0,0.919334l-0.60227,0l0,-0.919334z"/>
     <path id="svg_252" d="m31.13665,28.226397l0.60227,0l0,0.919334l-0.60227,0l0,-0.919334z"/>
     <path id="svg_253" d="m31.13665,29.703972l0.60227,0l0,0.919336l-0.60227,0l0,-0.919336z"/>
     <path id="svg_254" d="m31.13665,31.18667l0.60227,0l0,0.919336l-0.60227,0l0,-0.919336z"/>
     <path id="svg_255" d="m31.13665,32.664249l0.60227,0l0,0.919334l-0.60227,0l0,-0.919334z"/>
     <path id="svg_256" d="m31.13665,34.146946l0.60227,0l0,0.919334l-0.60227,0l0,-0.919334z"/>
    </g>
    <g id="svg_257" fill="#e6e7e8">
     <path id="svg_258" d="m35.072926,4.54421l0.602276,0l0,0.919335l-0.602276,0l0,-0.919335z"/>
     <path id="svg_259" d="m35.072926,6.021771l0.602276,0l0,0.919335l-0.602276,0l0,-0.919335z"/>
     <path id="svg_260" d="m35.072926,7.504485l0.602276,0l0,0.919334l-0.602276,0l0,-0.919334z"/>
     <path id="svg_261" d="m35.072926,8.982045l0.602276,0l0,0.919328l-0.602276,0l0,-0.919328z"/>
     <path id="svg_262" d="m35.072926,10.46475l0.602276,0l0,0.919336l-0.602276,0l0,-0.919336z"/>
     <path id="svg_263" d="m35.08934,11.942327l0.602276,0l0,0.919335l-0.602276,0l0,-0.919335z"/>
     <path id="svg_264" d="m35.08934,13.425026l0.602276,0l0,0.919335l-0.602276,0l0,-0.919335z"/>
     <path id="svg_265" d="m35.08934,14.902601l0.602276,0l0,0.919336l-0.602276,0l0,-0.919336z"/>
     <path id="svg_266" d="m35.08934,16.3853l0.602276,0l0,0.919334l-0.602276,0l0,-0.919334z"/>
     <path id="svg_267" d="m35.08934,17.862875l0.602276,0l0,0.919336l-0.602276,0l0,-0.919336z"/>
     <path id="svg_268" d="m35.08934,19.345573l0.602276,0l0,0.919334l-0.602276,0l0,-0.919334z"/>
     <path id="svg_269" d="m35.08934,20.823149l0.602276,0l0,0.919336l-0.602276,0l0,-0.919336z"/>
     <path id="svg_270" d="m35.08934,22.305847l0.602276,0l0,0.919336l-0.602276,0l0,-0.919336z"/>
     <path id="svg_271" d="m35.08934,23.783424l0.602276,0l0,0.919336l-0.602276,0l0,-0.919336z"/>
     <path id="svg_272" d="m35.08934,25.266123l0.602276,0l0,0.919336l-0.602276,0l0,-0.919336z"/>
     <path id="svg_273" d="m35.08934,26.743698l0.602276,0l0,0.919334l-0.602276,0l0,-0.919334z"/>
     <path id="svg_274" d="m35.08934,28.226397l0.602276,0l0,0.919334l-0.602276,0l0,-0.919334z"/>
     <path id="svg_275" d="m35.08934,29.703972l0.602276,0l0,0.919336l-0.602276,0l0,-0.919336z"/>
     <path id="svg_276" d="m35.08934,31.18667l0.602276,0l0,0.919336l-0.602276,0l0,-0.919336z"/>
     <path id="svg_277" d="m35.08934,32.664249l0.602276,0l0,0.919334l-0.602276,0l0,-0.919334z"/>
     <path id="svg_278" d="m35.08934,34.146946l0.602276,0l0,0.919334l-0.602276,0l0,-0.919334z"/>
    </g>
   </g>
   <g id="svg_279">
    <path id="svg_280" d="m36.603241,3.603583l3.576324,0l0,32.399297l-3.576324,0l0,-32.399297z"/>
    <g id="svg_281" fill="#e6e7e8">
     <path id="svg_282" d="m36.099808,4.54421l0.602283,0l0,0.919335l-0.602283,0l0,-0.919335z"/>
     <path id="svg_283" d="m36.099808,6.021771l0.602283,0l0,0.919335l-0.602283,0l0,-0.919335z"/>
     <path id="svg_284" d="m36.099808,7.504485l0.602283,0l0,0.919334l-0.602283,0l0,-0.919334z"/>
     <path id="svg_285" d="m36.099808,8.982045l0.602283,0l0,0.919328l-0.602283,0l0,-0.919328z"/>
     <path id="svg_286" d="m36.099808,10.46475l0.602283,0l0,0.919336l-0.602283,0l0,-0.919336z"/>
     <path id="svg_287" d="m36.116226,11.942327l0.60228,0l0,0.919335l-0.60228,0l0,-0.919335z"/>
     <path id="svg_288" d="m36.116226,13.425026l0.60228,0l0,0.919335l-0.60228,0l0,-0.919335z"/>
     <path id="svg_289" d="m36.116226,14.902601l0.60228,0l0,0.919336l-0.60228,0l0,-0.919336z"/>
     <path id="svg_290" d="m36.116226,16.3853l0.60228,0l0,0.919334l-0.60228,0l0,-0.919334z"/>
     <path id="svg_291" d="m36.116226,17.862875l0.60228,0l0,0.919336l-0.60228,0l0,-0.919336z"/>
     <path id="svg_292" d="m36.116226,19.345573l0.60228,0l0,0.919334l-0.60228,0l0,-0.919334z"/>
     <path id="svg_293" d="m36.116226,20.823149l0.60228,0l0,0.919336l-0.60228,0l0,-0.919336z"/>
     <path id="svg_294" d="m36.116226,22.305847l0.60228,0l0,0.919336l-0.60228,0l0,-0.919336z"/>
     <path id="svg_295" d="m36.116226,23.783424l0.60228,0l0,0.919336l-0.60228,0l0,-0.919336z"/>
     <path id="svg_296" d="m36.116226,25.266123l0.60228,0l0,0.919336l-0.60228,0l0,-0.919336z"/>
     <path id="svg_297" d="m36.116226,26.743698l0.60228,0l0,0.919334l-0.60228,0l0,-0.919334z"/>
     <path id="svg_298" d="m36.116226,28.226397l0.60228,0l0,0.919334l-0.60228,0l0,-0.919334z"/>
     <path id="svg_299" d="m36.116226,29.703972l0.60228,0l0,0.919336l-0.60228,0l0,-0.919336z"/>
     <path id="svg_300" d="m36.116226,31.18667l0.60228,0l0,0.919336l-0.60228,0l0,-0.919336z"/>
     <path id="svg_301" d="m36.116226,32.664249l0.60228,0l0,0.919334l-0.60228,0l0,-0.919334z"/>
     <path id="svg_302" d="m36.116226,34.146946l0.60228,0l0,0.919334l-0.60228,0l0,-0.919334z"/>
    </g>
    <g id="svg_303" fill="#e6e7e8">
     <path id="svg_304" d="m40.052505,4.54421l0.602276,0l0,0.919335l-0.602276,0l0,-0.919335z"/>
     <path id="svg_305" d="m40.052505,6.021771l0.602276,0l0,0.919335l-0.602276,0l0,-0.919335z"/>
     <path id="svg_306" d="m40.052505,7.504485l0.602276,0l0,0.919334l-0.602276,0l0,-0.919334z"/>
     <path id="svg_307" d="m40.052505,8.982045l0.602276,0l0,0.919328l-0.602276,0l0,-0.919328z"/>
     <path id="svg_308" d="m40.052505,10.46475l0.602276,0l0,0.919336l-0.602276,0l0,-0.919336z"/>
     <path id="svg_309" d="m40.06892,11.942327l0.602276,0l0,0.919335l-0.602276,0l0,-0.919335z"/>
     <path id="svg_310" d="m40.06892,13.425026l0.602276,0l0,0.919335l-0.602276,0l0,-0.919335z"/>
     <path id="svg_311" d="m40.06892,14.902601l0.602276,0l0,0.919336l-0.602276,0l0,-0.919336z"/>
     <path id="svg_312" d="m40.06892,16.3853l0.602276,0l0,0.919334l-0.602276,0l0,-0.919334z"/>
     <path id="svg_313" d="m40.06892,17.862875l0.602276,0l0,0.919336l-0.602276,0l0,-0.919336z"/>
     <path id="svg_314" d="m40.06892,19.345573l0.602276,0l0,0.919334l-0.602276,0l0,-0.919334z"/>
     <path id="svg_315" d="m40.06892,20.823149l0.602276,0l0,0.919336l-0.602276,0l0,-0.919336z"/>
     <path id="svg_316" d="m40.06892,22.305847l0.602276,0l0,0.919336l-0.602276,0l0,-0.919336z"/>
     <path id="svg_317" d="m40.06892,23.783424l0.602276,0l0,0.919336l-0.602276,0l0,-0.919336z"/>
     <path id="svg_318" d="m40.06892,25.266123l0.602276,0l0,0.919336l-0.602276,0l0,-0.919336z"/>
     <path id="svg_319" d="m40.06892,26.743698l0.602276,0l0,0.919334l-0.602276,0l0,-0.919334z"/>
     <path id="svg_320" d="m40.06892,28.226397l0.602276,0l0,0.919334l-0.602276,0l0,-0.919334z"/>
     <path id="svg_321" d="m40.06892,29.703972l0.602276,0l0,0.919336l-0.602276,0l0,-0.919336z"/>
     <path id="svg_322" d="m40.06892,31.18667l0.602276,0l0,0.919336l-0.602276,0l0,-0.919336z"/>
     <path id="svg_323" d="m40.06892,32.664249l0.602276,0l0,0.919334l-0.602276,0l0,-0.919334z"/>
     <path id="svg_324" d="m40.06892,34.146946l0.602276,0l0,0.919334l-0.602276,0l0,-0.919334z"/>
    </g>
   </g>
   <g id="svg_325">
    <path id="svg_326" d="m41.528107,3.603583l3.576321,0l0,32.399297l-3.576321,0l0,-32.399297z"/>
    <g id="svg_327" fill="#e6e7e8">
     <path id="svg_328" d="m41.02467,4.54421l0.60228,0l0,0.919335l-0.60228,0l0,-0.919335z"/>
     <path id="svg_329" d="m41.02467,6.021771l0.60228,0l0,0.919335l-0.60228,0l0,-0.919335z"/>
     <path id="svg_330" d="m41.02467,7.504485l0.60228,0l0,0.919334l-0.60228,0l0,-0.919334z"/>
     <path id="svg_331" d="m41.02467,8.982045l0.60228,0l0,0.919328l-0.60228,0l0,-0.919328z"/>
     <path id="svg_332" d="m41.02467,10.46475l0.60228,0l0,0.919336l-0.60228,0l0,-0.919336z"/>
     <path id="svg_333" d="m41.041088,11.942327l0.60228,0l0,0.919335l-0.60228,0l0,-0.919335z"/>
     <path id="svg_334" d="m41.041088,13.425026l0.60228,0l0,0.919335l-0.60228,0l0,-0.919335z"/>
     <path id="svg_335" d="m41.041088,14.902601l0.60228,0l0,0.919336l-0.60228,0l0,-0.919336z"/>
     <path id="svg_336" d="m41.041088,16.3853l0.60228,0l0,0.919334l-0.60228,0l0,-0.919334z"/>
     <path id="svg_337" d="m41.041088,17.862875l0.60228,0l0,0.919336l-0.60228,0l0,-0.919336z"/>
     <path id="svg_338" d="m41.041088,19.345573l0.60228,0l0,0.919334l-0.60228,0l0,-0.919334z"/>
     <path id="svg_339" d="m41.041088,20.823149l0.60228,0l0,0.919336l-0.60228,0l0,-0.919336z"/>
     <path id="svg_340" d="m41.041088,22.305847l0.60228,0l0,0.919336l-0.60228,0l0,-0.919336z"/>
     <path id="svg_341" d="m41.041088,23.783424l0.60228,0l0,0.919336l-0.60228,0l0,-0.919336z"/>
     <path id="svg_342" d="m41.041088,25.266123l0.60228,0l0,0.919336l-0.60228,0l0,-0.919336z"/>
     <path id="svg_343" d="m41.041088,26.743698l0.60228,0l0,0.919334l-0.60228,0l0,-0.919334z"/>
     <path id="svg_344" d="m41.041088,28.226397l0.60228,0l0,0.919334l-0.60228,0l0,-0.919334z"/>
     <path id="svg_345" d="m41.041088,29.703972l0.60228,0l0,0.919336l-0.60228,0l0,-0.919336z"/>
     <path id="svg_346" d="m41.041088,31.18667l0.60228,0l0,0.919336l-0.60228,0l0,-0.919336z"/>
     <path id="svg_347" d="m41.041088,32.664249l0.60228,0l0,0.919334l-0.60228,0l0,-0.919334z"/>
     <path id="svg_348" d="m41.041088,34.146946l0.60228,0l0,0.919334l-0.60228,0l0,-0.919334z"/>
    </g>
    <g id="svg_349" fill="#e6e7e8">
     <path id="svg_350" d="m44.977367,4.54421l0.602276,0l0,0.919335l-0.602276,0l0,-0.919335z"/>
     <path id="svg_351" d="m44.977367,6.021771l0.602276,0l0,0.919335l-0.602276,0l0,-0.919335z"/>
     <path id="svg_352" d="m44.977367,7.504485l0.602276,0l0,0.919334l-0.602276,0l0,-0.919334z"/>
     <path id="svg_353" d="m44.977367,8.982045l0.602276,0l0,0.919328l-0.602276,0l0,-0.919328z"/>
     <path id="svg_354" d="m44.977367,10.46475l0.602276,0l0,0.919336l-0.602276,0l0,-0.919336z"/>
     <path id="svg_355" d="m44.993782,11.942327l0.602272,0l0,0.919335l-0.602272,0l0,-0.919335z"/>
     <path id="svg_356" d="m44.993782,13.425026l0.602272,0l0,0.919335l-0.602272,0l0,-0.919335z"/>
     <path id="svg_357" d="m44.993782,14.902601l0.602272,0l0,0.919336l-0.602272,0l0,-0.919336z"/>
     <path id="svg_358" d="m44.993782,16.3853l0.602272,0l0,0.919334l-0.602272,0l0,-0.919334z"/>
     <path id="svg_359" d="m44.993782,17.862875l0.602272,0l0,0.919336l-0.602272,0l0,-0.919336z"/>
     <path id="svg_360" d="m44.993782,19.345573l0.602272,0l0,0.919334l-0.602272,0l0,-0.919334z"/>
     <path id="svg_361" d="m44.993782,20.823149l0.602272,0l0,0.919336l-0.602272,0l0,-0.919336z"/>
     <path id="svg_362" d="m44.993782,22.305847l0.602272,0l0,0.919336l-0.602272,0l0,-0.919336z"/>
     <path id="svg_363" d="m44.993782,23.783424l0.602272,0l0,0.919336l-0.602272,0l0,-0.919336z"/>
     <path id="svg_364" d="m44.993782,25.266123l0.602272,0l0,0.919336l-0.602272,0l0,-0.919336z"/>
     <path id="svg_365" d="m44.993782,26.743698l0.602272,0l0,0.919334l-0.602272,0l0,-0.919334z"/>
     <path id="svg_366" d="m44.993782,28.226397l0.602272,0l0,0.919334l-0.602272,0l0,-0.919334z"/>
     <path id="svg_367" d="m44.993782,29.703972l0.602272,0l0,0.919336l-0.602272,0l0,-0.919336z"/>
     <path id="svg_368" d="m44.993782,31.18667l0.602272,0l0,0.919336l-0.602272,0l0,-0.919336z"/>
     <path id="svg_369" d="m44.993782,32.664249l0.602272,0l0,0.919334l-0.602272,0l0,-0.919334z"/>
     <path id="svg_370" d="m44.993782,34.146946l0.602272,0l0,0.919334l-0.602272,0l0,-0.919334z"/>
    </g>
   </g>
   <path id="svg_371" fill-rule="evenodd" fill="#ff0" d="m8.459308,42.179806l0.503016,0l0,5.642551l-0.503016,0l0,-5.642551z"/>
   <path id="svg_372" fill-rule="evenodd" fill="#ff0" d="m7.77311,42.179806l0.503014,0l0,5.642551l-0.503014,0l0,-5.642551z"/>
   <path id="svg_373" fill-rule="evenodd" fill="#ff0" d="m7.085819,42.179806l0.503015,0l0,5.642551l-0.503015,0l0,-5.642551z"/>
   <path id="svg_374" fill-rule="evenodd" fill="#ff0" d="m6.399621,42.179806l0.503015,0l0,5.642551l-0.503015,0l0,-5.642551z"/>
   <path id="svg_375" fill-rule="evenodd" fill="#ff0" d="m5.71233,42.179806l0.503015,0l0,5.642551l-0.503015,0l0,-5.642551z"/>
   <path id="svg_376" fill-rule="evenodd" fill="#ff0" d="m5.026132,42.179806l0.503016,0l0,5.642551l-0.503016,0l0,-5.642551z"/>
   <path id="svg_377" fill-rule="evenodd" fill="#ff0" d="m4.338841,42.179806l0.503015,0l0,5.642551l-0.503015,0l0,-5.642551z"/>
   <path id="svg_378" fill-rule="evenodd" fill="#ff0" d="m3.652645,42.179806l0.503015,0l0,5.642551l-0.503015,0l0,-5.642551z"/>
   <path id="svg_379" fill-rule="evenodd" fill="#ff0" d="m2.965351,42.179806l0.503015,0l0,5.642551l-0.503015,0l0,-5.642551z"/>
   <path id="svg_380" fill-rule="evenodd" fill="#ff0" d="m2.27806,42.179806l0.503015,0l0,5.642551l-0.503015,0l0,-5.642551z"/>
   <path id="svg_381" fill-rule="evenodd" fill="#ff0" d="m1.591864,42.179806l0.503015,0l0,5.642551l-0.503015,0l0,-5.642551z"/>
   <path id="svg_382" fill-rule="evenodd" fill="#ff0" d="m17.75963,42.179806l0.503014,0l0,5.642551l-0.503014,0l0,-5.642551z"/>
   <path id="svg_383" fill-rule="evenodd" fill="#ff0" d="m17.06249,42.179806l0.503012,0l0,5.642551l-0.503012,0l0,-5.642551z"/>
   <path id="svg_384" fill-rule="evenodd" fill="#ff0" d="m16.366444,42.179806l0.503014,0l0,5.642551l-0.503014,0l0,-5.642551z"/>
   <path id="svg_385" fill-rule="evenodd" fill="#ff0" d="m15.669305,42.179806l0.503011,0l0,5.642551l-0.503011,0l0,-5.642551z"/>
   <path id="svg_386" fill-rule="evenodd" fill="#ff0" d="m14.972163,42.179806l0.503014,0l0,5.642551l-0.503014,0l0,-5.642551z"/>
   <path id="svg_387" fill-rule="evenodd" fill="#ff0" d="m14.275018,42.179806l0.503015,0l0,5.642551l-0.503015,0l0,-5.642551z"/>
   <path id="svg_388" fill-rule="evenodd" fill="#ff0" d="m13.578973,42.179806l0.503015,0l0,5.642551l-0.503015,0l0,-5.642551z"/>
   <path id="svg_389" fill-rule="evenodd" fill="#ff0" d="m12.881832,42.179806l0.503015,0l0,5.642551l-0.503015,0l0,-5.642551z"/>
   <path id="svg_390" fill-rule="evenodd" fill="#ff0" d="m12.18469,42.179806l0.503014,0l0,5.642551l-0.503014,0l0,-5.642551z"/>
   <path id="svg_391" fill-rule="evenodd" fill="#ff0" d="m11.487549,42.179806l0.503015,0l0,5.642551l-0.503015,0l0,-5.642551z"/>
   <path id="svg_392" fill-rule="evenodd" fill="#ff0" d="m10.791502,42.179806l0.503015,0l0,5.642551l-0.503015,0l0,-5.642551z"/>
   <path id="svg_393" fill-rule="evenodd" fill="#ff0" d="m21.94029,42.179806l0.503014,0l0,5.642551l-0.503014,0l0,-5.642551z"/>
   <path id="svg_394" fill-rule="evenodd" fill="#ff0" d="m21.244246,42.179806l0.503012,0l0,5.642551l-0.503012,0l0,-5.642551z"/>
   <path id="svg_395" fill-rule="evenodd" fill="#ff0" d="m20.5471,42.179806l0.503012,0l0,5.642551l-0.503012,0l0,-5.642551z"/>
   <path id="svg_396" fill-rule="evenodd" fill="#ff0" d="m19.84996,42.179806l0.503012,0l0,5.642551l-0.503012,0l0,-5.642551z"/>
   <path id="svg_397" fill-rule="evenodd" fill="#ff0" d="m19.153915,42.179806l0.503014,0l0,5.642551l-0.503014,0l0,-5.642551z"/>
   <path id="svg_398" fill-rule="evenodd" fill="#ff0" d="m18.456774,42.179806l0.503014,0l0,5.642551l-0.503014,0l0,-5.642551z"/>
   <path id="svg_399" fill-rule="evenodd" fill="#ff0" d="m31.816273,42.179806l0.503014,0l0,5.642551l-0.503014,0l0,-5.642551z"/>
   <path id="svg_400" fill-rule="evenodd" fill="#ff0" d="m31.119131,42.179806l0.503016,0l0,5.642551l-0.503016,0l0,-5.642551z"/>
   <path id="svg_401" fill-rule="evenodd" fill="#ff0" d="m30.42309,42.179806l0.50301,0l0,5.642551l-0.50301,0l0,-5.642551z"/>
   <path id="svg_402" fill-rule="evenodd" fill="#ff0" d="m29.725948,42.179806l0.503012,0l0,5.642551l-0.503012,0l0,-5.642551z"/>
   <path id="svg_403" fill-rule="evenodd" fill="#ff0" d="m29.029902,42.179806l0.503014,0l0,5.642551l-0.503014,0l0,-5.642551z"/>
   <path id="svg_404" fill-rule="evenodd" fill="#ff0" d="m28.33276,42.179806l0.503016,0l0,5.642551l-0.503016,0l0,-5.642551z"/>
   <path id="svg_405" fill-rule="evenodd" fill="#ff0" d="m27.636709,42.179806l0.503014,0l0,5.642551l-0.503014,0l0,-5.642551z"/>
   <path id="svg_406" fill-rule="evenodd" fill="#ff0" d="m26.939571,42.179806l0.503016,0l0,5.642551l-0.503016,0l0,-5.642551z"/>
   <path id="svg_407" fill-rule="evenodd" fill="#ff0" d="m26.24243,42.179806l0.503014,0l0,5.642551l-0.503014,0l0,-5.642551z"/>
   <path id="svg_408" fill-rule="evenodd" fill="#ff0" d="m25.546385,42.179806l0.503012,0l0,5.642551l-0.503012,0l0,-5.642551z"/>
   <path id="svg_409" fill-rule="evenodd" fill="#ff0" d="m24.849243,42.179806l0.503014,0l0,5.642551l-0.503014,0l0,-5.642551z"/>
   <path id="svg_410" fill-rule="evenodd" fill="#ff0" d="m35.996933,42.179806l0.503014,0l0,5.642551l-0.503014,0l0,-5.642551z"/>
   <path id="svg_411" fill-rule="evenodd" fill="#ff0" d="m35.299793,42.179806l0.503014,0l0,5.642551l-0.503014,0l0,-5.642551z"/>
   <path id="svg_412" fill-rule="evenodd" fill="#ff0" d="m34.60265,42.179806l0.503017,0l0,5.642551l-0.503017,0l0,-5.642551z"/>
   <path id="svg_413" fill-rule="evenodd" fill="#ff0" d="m33.906609,42.179806l0.50301,0l0,5.642551l-0.50301,0l0,-5.642551z"/>
   <path id="svg_414" fill-rule="evenodd" fill="#ff0" d="m33.209469,42.179806l0.50301,0l0,5.642551l-0.50301,0l0,-5.642551z"/>
   <path id="svg_415" fill-rule="evenodd" fill="#ff0" d="m32.51342,42.179806l0.503014,0l0,5.642551l-0.503014,0l0,-5.642551z"/>
   <path id="svg_416" fill-rule="evenodd" fill="#ff0" d="m40.873638,42.179806l0.503017,0l0,5.642551l-0.503017,0l0,-5.642551z"/>
   <path id="svg_417" fill-rule="evenodd" fill="#ff0" d="m40.176502,42.179806l0.50301,0l0,5.642551l-0.50301,0l0,-5.642551z"/>
   <path id="svg_418" fill-rule="evenodd" fill="#ff0" d="m39.480453,42.179806l0.503014,0l0,5.642551l-0.503014,0l0,-5.642551z"/>
   <path id="svg_419" fill-rule="evenodd" fill="#ff0" d="m38.783314,42.179806l0.503014,0l0,5.642551l-0.503014,0l0,-5.642551z"/>
   <path id="svg_420" fill-rule="evenodd" fill="#ff0" d="m38.08617,42.179806l0.503014,0l0,5.642551l-0.503014,0l0,-5.642551z"/>
   <path id="svg_421" fill-rule="evenodd" fill="#ff0" d="m37.390125,42.179806l0.503017,0l0,5.642551l-0.503017,0l0,-5.642551z"/>
   <path id="svg_422" fill-rule="evenodd" fill="#ff0" d="m36.692978,42.179806l0.503014,0l0,5.642551l-0.503014,0l0,-5.642551z"/>
   <path id="svg_423" fill-rule="evenodd" fill="#ff0" d="m45.053204,42.179806l0.503017,0l0,5.642551l-0.503017,0l0,-5.642551z"/>
   <path id="svg_424" fill-rule="evenodd" fill="#ff0" d="m44.357159,42.179806l0.503017,0l0,5.642551l-0.503017,0l0,-5.642551z"/>
   <path id="svg_425" fill-rule="evenodd" fill="#ff0" d="m43.660015,42.179806l0.503014,0l0,5.642551l-0.503014,0l0,-5.642551z"/>
   <path id="svg_426" fill-rule="evenodd" fill="#ff0" d="m42.962879,42.179806l0.503014,0l0,5.642551l-0.503014,0l0,-5.642551z"/>
   <path id="svg_427" fill-rule="evenodd" fill="#ff0" d="m42.266823,42.179806l0.503017,0l0,5.642551l-0.503017,0l0,-5.642551z"/>
   <path id="svg_428" fill-rule="evenodd" fill="#ff0" d="m41.569687,42.179806l0.503006,0l0,5.642551l-0.503006,0l0,-5.642551z"/>
  </g>
 </g>
</svg>